<mxfile host="app.diagrams.net" modified="2023-06-02T07:48:19.984Z" agent="Mozilla/5.0 (Macintosh; Intel Mac OS X 10_15_7) AppleWebKit/537.36 (KHTML, like Gecko) Chrome/109.0.0.0 Safari/537.36" etag="fT2P7mxU7vzuPk-YunWd" version="21.3.4" type="device" pages="5">
  <diagram name="Server" id="Ny38vXu0s3uts9oPLevN">
    <mxGraphModel dx="1478" dy="899" grid="1" gridSize="10" guides="1" tooltips="1" connect="1" arrows="1" fold="1" page="1" pageScale="1" pageWidth="850" pageHeight="1100" math="0" shadow="0">
      <root>
        <mxCell id="0" />
        <mxCell id="1" parent="0" />
        <mxCell id="Z1SarjyV387bxoBxRJpZ-27" style="edgeStyle=orthogonalEdgeStyle;rounded=0;orthogonalLoop=1;jettySize=auto;html=1;exitX=0.5;exitY=1;exitDx=0;exitDy=0;entryX=0.5;entryY=0;entryDx=0;entryDy=0;strokeWidth=3;endArrow=blockThin;endFill=1;" parent="1" source="Z1SarjyV387bxoBxRJpZ-4" target="Z1SarjyV387bxoBxRJpZ-6" edge="1">
          <mxGeometry relative="1" as="geometry" />
        </mxCell>
        <mxCell id="Z1SarjyV387bxoBxRJpZ-4" value="&lt;span style=&quot;font-size: 16px;&quot;&gt;Socket 생성 및 Bind ( Server )&lt;/span&gt;" style="rounded=0;whiteSpace=wrap;html=1;strokeWidth=3;" parent="1" vertex="1">
          <mxGeometry x="80" y="40" width="980" height="50" as="geometry" />
        </mxCell>
        <mxCell id="9jqolAqHjXgI4w7DdtWd-3" style="edgeStyle=orthogonalEdgeStyle;rounded=0;orthogonalLoop=1;jettySize=auto;html=1;exitX=0.5;exitY=1;exitDx=0;exitDy=0;entryX=0.5;entryY=0;entryDx=0;entryDy=0;strokeWidth=3;endArrow=blockThin;endFill=1;" edge="1" parent="1" source="Z1SarjyV387bxoBxRJpZ-5" target="OSDeE9U1ssSlSpSSex_0-1">
          <mxGeometry relative="1" as="geometry">
            <Array as="points">
              <mxPoint x="265" y="840" />
              <mxPoint x="590" y="840" />
            </Array>
          </mxGeometry>
        </mxCell>
        <mxCell id="Z1SarjyV387bxoBxRJpZ-5" value="&lt;span style=&quot;font-size: 16px;&quot;&gt;Accept 후 Connection 객체 생성 ( Server )&lt;/span&gt;" style="rounded=0;whiteSpace=wrap;html=1;strokeWidth=3;" parent="1" vertex="1">
          <mxGeometry x="120" y="590" width="290" height="50" as="geometry" />
        </mxCell>
        <mxCell id="Z1SarjyV387bxoBxRJpZ-28" style="edgeStyle=orthogonalEdgeStyle;rounded=0;orthogonalLoop=1;jettySize=auto;html=1;exitX=0.5;exitY=1;exitDx=0;exitDy=0;strokeWidth=3;endArrow=blockThin;endFill=1;entryX=0.5;entryY=0;entryDx=0;entryDy=0;" parent="1" source="Z1SarjyV387bxoBxRJpZ-6" target="0lflEqWZM_XcYg7FdxWU-4" edge="1">
          <mxGeometry relative="1" as="geometry">
            <mxPoint x="430" y="230" as="targetPoint" />
          </mxGeometry>
        </mxCell>
        <mxCell id="Z1SarjyV387bxoBxRJpZ-6" value="&lt;font style=&quot;font-size: 16px;&quot;&gt;Listen ( Server )&lt;/font&gt;" style="rounded=0;whiteSpace=wrap;html=1;strokeWidth=3;" parent="1" vertex="1">
          <mxGeometry x="80" y="130" width="980" height="50" as="geometry" />
        </mxCell>
        <mxCell id="Z1SarjyV387bxoBxRJpZ-30" style="edgeStyle=orthogonalEdgeStyle;rounded=0;orthogonalLoop=1;jettySize=auto;html=1;exitX=0.5;exitY=1;exitDx=0;exitDy=0;entryX=0.5;entryY=0;entryDx=0;entryDy=0;strokeWidth=3;endArrow=blockThin;endFill=1;" parent="1" source="Z1SarjyV387bxoBxRJpZ-7" target="Z1SarjyV387bxoBxRJpZ-12" edge="1">
          <mxGeometry relative="1" as="geometry" />
        </mxCell>
        <mxCell id="Z1SarjyV387bxoBxRJpZ-7" value="&lt;font style=&quot;font-size: 16px;&quot;&gt;요청 메세지 수신 ( Connection )&lt;/font&gt;" style="rounded=0;whiteSpace=wrap;html=1;strokeWidth=3;" parent="1" vertex="1">
          <mxGeometry x="440" y="590" width="290" height="50" as="geometry" />
        </mxCell>
        <mxCell id="9jqolAqHjXgI4w7DdtWd-2" style="edgeStyle=orthogonalEdgeStyle;rounded=0;orthogonalLoop=1;jettySize=auto;html=1;exitX=0.5;exitY=1;exitDx=0;exitDy=0;strokeWidth=3;endArrow=blockThin;endFill=1;" edge="1" parent="1">
          <mxGeometry relative="1" as="geometry">
            <mxPoint x="590" y="871" as="targetPoint" />
            <mxPoint x="585" y="721" as="sourcePoint" />
            <Array as="points">
              <mxPoint x="590" y="721" />
            </Array>
          </mxGeometry>
        </mxCell>
        <mxCell id="Z1SarjyV387bxoBxRJpZ-12" value="&lt;span style=&quot;font-size: 16px;&quot;&gt;요청 메세지 파싱 &lt;br&gt;( RequestMessageParser )&lt;br&gt;&lt;/span&gt;" style="rounded=0;whiteSpace=wrap;html=1;strokeWidth=3;" parent="1" vertex="1">
          <mxGeometry x="440" y="680" width="290" height="50" as="geometry" />
        </mxCell>
        <mxCell id="9jqolAqHjXgI4w7DdtWd-14" style="edgeStyle=orthogonalEdgeStyle;rounded=0;orthogonalLoop=1;jettySize=auto;html=1;exitX=0.5;exitY=1;exitDx=0;exitDy=0;entryX=0.5;entryY=0;entryDx=0;entryDy=0;strokeWidth=3;endArrow=blockThin;endFill=1;" edge="1" parent="1" source="Z1SarjyV387bxoBxRJpZ-13" target="Z1SarjyV387bxoBxRJpZ-16">
          <mxGeometry relative="1" as="geometry" />
        </mxCell>
        <mxCell id="9jqolAqHjXgI4w7DdtWd-15" style="edgeStyle=orthogonalEdgeStyle;rounded=0;orthogonalLoop=1;jettySize=auto;html=1;exitX=0.5;exitY=1;exitDx=0;exitDy=0;entryX=0.5;entryY=0;entryDx=0;entryDy=0;strokeWidth=3;endArrow=blockThin;endFill=1;" edge="1" parent="1" source="Z1SarjyV387bxoBxRJpZ-13" target="Z1SarjyV387bxoBxRJpZ-21">
          <mxGeometry relative="1" as="geometry" />
        </mxCell>
        <mxCell id="9jqolAqHjXgI4w7DdtWd-16" style="edgeStyle=orthogonalEdgeStyle;rounded=0;orthogonalLoop=1;jettySize=auto;html=1;exitX=0.5;exitY=1;exitDx=0;exitDy=0;entryX=0.5;entryY=0;entryDx=0;entryDy=0;strokeWidth=3;endArrow=blockThin;endFill=1;" edge="1" parent="1" source="Z1SarjyV387bxoBxRJpZ-13" target="Z1SarjyV387bxoBxRJpZ-22">
          <mxGeometry relative="1" as="geometry" />
        </mxCell>
        <mxCell id="9jqolAqHjXgI4w7DdtWd-17" style="edgeStyle=orthogonalEdgeStyle;rounded=0;orthogonalLoop=1;jettySize=auto;html=1;exitX=0.5;exitY=1;exitDx=0;exitDy=0;entryX=0.5;entryY=0;entryDx=0;entryDy=0;strokeWidth=3;endArrow=blockThin;endFill=1;" edge="1" parent="1" source="Z1SarjyV387bxoBxRJpZ-13" target="Z1SarjyV387bxoBxRJpZ-23">
          <mxGeometry relative="1" as="geometry" />
        </mxCell>
        <mxCell id="Z1SarjyV387bxoBxRJpZ-13" value="&lt;span style=&quot;font-size: 16px;&quot;&gt;HTTP 메소드 종류 별 requestHandler 실행 &lt;br&gt;( ServerController )&lt;br&gt;&lt;/span&gt;" style="rounded=0;whiteSpace=wrap;html=1;strokeWidth=3;" parent="1" vertex="1">
          <mxGeometry x="770" y="590" width="290" height="50" as="geometry" />
        </mxCell>
        <mxCell id="9jqolAqHjXgI4w7DdtWd-21" style="edgeStyle=orthogonalEdgeStyle;rounded=0;orthogonalLoop=1;jettySize=auto;html=1;exitX=0.5;exitY=1;exitDx=0;exitDy=0;entryX=0.5;entryY=0;entryDx=0;entryDy=0;strokeWidth=3;endArrow=blockThin;endFill=1;" edge="1" parent="1" source="Z1SarjyV387bxoBxRJpZ-16" target="Z1SarjyV387bxoBxRJpZ-24">
          <mxGeometry relative="1" as="geometry" />
        </mxCell>
        <mxCell id="Z1SarjyV387bxoBxRJpZ-16" value="&lt;font style=&quot;font-size: 14px;&quot;&gt;GET / HEAD&lt;/font&gt;" style="rounded=0;whiteSpace=wrap;html=1;strokeWidth=3;" parent="1" vertex="1">
          <mxGeometry x="770" y="680" width="60" height="50" as="geometry" />
        </mxCell>
        <mxCell id="9jqolAqHjXgI4w7DdtWd-20" style="edgeStyle=orthogonalEdgeStyle;rounded=0;orthogonalLoop=1;jettySize=auto;html=1;exitX=0.5;exitY=1;exitDx=0;exitDy=0;entryX=0.5;entryY=0;entryDx=0;entryDy=0;strokeWidth=3;endArrow=blockThin;endFill=1;" edge="1" parent="1" source="Z1SarjyV387bxoBxRJpZ-21" target="Z1SarjyV387bxoBxRJpZ-24">
          <mxGeometry relative="1" as="geometry" />
        </mxCell>
        <mxCell id="Z1SarjyV387bxoBxRJpZ-21" value="&lt;font style=&quot;font-size: 14px;&quot;&gt;POST&lt;/font&gt;" style="rounded=0;whiteSpace=wrap;html=1;strokeWidth=3;" parent="1" vertex="1">
          <mxGeometry x="850" y="680" width="60" height="50" as="geometry" />
        </mxCell>
        <mxCell id="9jqolAqHjXgI4w7DdtWd-19" style="edgeStyle=orthogonalEdgeStyle;rounded=0;orthogonalLoop=1;jettySize=auto;html=1;exitX=0.5;exitY=1;exitDx=0;exitDy=0;entryX=0.5;entryY=0;entryDx=0;entryDy=0;strokeWidth=3;endArrow=blockThin;endFill=1;" edge="1" parent="1" source="Z1SarjyV387bxoBxRJpZ-22" target="Z1SarjyV387bxoBxRJpZ-24">
          <mxGeometry relative="1" as="geometry" />
        </mxCell>
        <mxCell id="Z1SarjyV387bxoBxRJpZ-22" value="&lt;font style=&quot;font-size: 14px;&quot;&gt;DELETE&lt;/font&gt;" style="rounded=0;whiteSpace=wrap;html=1;strokeWidth=3;" parent="1" vertex="1">
          <mxGeometry x="930" y="680" width="60" height="50" as="geometry" />
        </mxCell>
        <mxCell id="9jqolAqHjXgI4w7DdtWd-18" style="edgeStyle=orthogonalEdgeStyle;rounded=0;orthogonalLoop=1;jettySize=auto;html=1;exitX=0.5;exitY=1;exitDx=0;exitDy=0;entryX=0.5;entryY=0;entryDx=0;entryDy=0;strokeWidth=3;endArrow=blockThin;endFill=1;" edge="1" parent="1" source="Z1SarjyV387bxoBxRJpZ-23" target="Z1SarjyV387bxoBxRJpZ-24">
          <mxGeometry relative="1" as="geometry" />
        </mxCell>
        <mxCell id="Z1SarjyV387bxoBxRJpZ-23" value="&lt;font style=&quot;font-size: 14px;&quot;&gt;PUT&lt;/font&gt;" style="rounded=0;whiteSpace=wrap;html=1;strokeWidth=3;" parent="1" vertex="1">
          <mxGeometry x="1000" y="680" width="60" height="50" as="geometry" />
        </mxCell>
        <mxCell id="9jqolAqHjXgI4w7DdtWd-1" style="edgeStyle=orthogonalEdgeStyle;rounded=0;orthogonalLoop=1;jettySize=auto;html=1;exitX=0.5;exitY=1;exitDx=0;exitDy=0;entryX=0.5;entryY=0;entryDx=0;entryDy=0;strokeWidth=3;endArrow=blockThin;endFill=1;" edge="1" parent="1" source="Z1SarjyV387bxoBxRJpZ-24" target="OSDeE9U1ssSlSpSSex_0-1">
          <mxGeometry relative="1" as="geometry">
            <Array as="points">
              <mxPoint x="915" y="840" />
              <mxPoint x="590" y="840" />
            </Array>
          </mxGeometry>
        </mxCell>
        <mxCell id="Z1SarjyV387bxoBxRJpZ-24" value="&lt;span style=&quot;font-size: 16px;&quot;&gt;응답 메세지 송신 ( Connection )&lt;br&gt;&lt;/span&gt;" style="rounded=0;whiteSpace=wrap;html=1;strokeWidth=3;" parent="1" vertex="1">
          <mxGeometry x="770" y="770" width="290" height="50" as="geometry" />
        </mxCell>
        <mxCell id="9jqolAqHjXgI4w7DdtWd-22" style="edgeStyle=orthogonalEdgeStyle;rounded=0;orthogonalLoop=1;jettySize=auto;html=1;exitX=0.5;exitY=1;exitDx=0;exitDy=0;entryX=0;entryY=0.5;entryDx=0;entryDy=0;strokeWidth=3;endArrow=blockThin;endFill=1;" edge="1" parent="1" source="Z1SarjyV387bxoBxRJpZ-25" target="0lflEqWZM_XcYg7FdxWU-4">
          <mxGeometry relative="1" as="geometry">
            <Array as="points">
              <mxPoint x="955" y="1050" />
              <mxPoint x="40" y="1050" />
              <mxPoint x="40" y="245" />
            </Array>
          </mxGeometry>
        </mxCell>
        <mxCell id="Z1SarjyV387bxoBxRJpZ-25" value="&lt;span style=&quot;font-size: 16px;&quot;&gt;Timeout 이면 &lt;br&gt;Connection 삭제 ( Server )&lt;br&gt;&lt;/span&gt;" style="rounded=0;whiteSpace=wrap;html=1;strokeWidth=3;" parent="1" vertex="1">
          <mxGeometry x="850" y="960" width="210" height="50" as="geometry" />
        </mxCell>
        <mxCell id="9jqolAqHjXgI4w7DdtWd-13" style="edgeStyle=orthogonalEdgeStyle;rounded=0;orthogonalLoop=1;jettySize=auto;html=1;exitX=0.5;exitY=1;exitDx=0;exitDy=0;entryX=0.48;entryY=0.02;entryDx=0;entryDy=0;entryPerimeter=0;strokeWidth=3;endArrow=blockThin;endFill=1;" edge="1" parent="1" source="0lflEqWZM_XcYg7FdxWU-4" target="0lflEqWZM_XcYg7FdxWU-9">
          <mxGeometry relative="1" as="geometry">
            <Array as="points">
              <mxPoint x="571" y="270" />
            </Array>
          </mxGeometry>
        </mxCell>
        <mxCell id="0lflEqWZM_XcYg7FdxWU-4" value="&lt;span style=&quot;font-size: 16px;&quot;&gt;이벤트 감지&lt;/span&gt;" style="rounded=0;whiteSpace=wrap;html=1;strokeWidth=3;" vertex="1" parent="1">
          <mxGeometry x="80" y="220" width="980" height="50" as="geometry" />
        </mxCell>
        <mxCell id="9jqolAqHjXgI4w7DdtWd-9" style="edgeStyle=orthogonalEdgeStyle;rounded=0;orthogonalLoop=1;jettySize=auto;html=1;exitX=0.5;exitY=1;exitDx=0;exitDy=0;entryX=0.5;entryY=0;entryDx=0;entryDy=0;strokeWidth=3;endArrow=blockThin;endFill=1;" edge="1" parent="1" source="0lflEqWZM_XcYg7FdxWU-6" target="0lflEqWZM_XcYg7FdxWU-18">
          <mxGeometry relative="1" as="geometry" />
        </mxCell>
        <mxCell id="9jqolAqHjXgI4w7DdtWd-10" style="edgeStyle=orthogonalEdgeStyle;rounded=0;orthogonalLoop=1;jettySize=auto;html=1;exitX=0.5;exitY=1;exitDx=0;exitDy=0;entryX=0.5;entryY=0;entryDx=0;entryDy=0;strokeWidth=3;endArrow=blockThin;endFill=1;" edge="1" parent="1" source="0lflEqWZM_XcYg7FdxWU-6" target="0lflEqWZM_XcYg7FdxWU-17">
          <mxGeometry relative="1" as="geometry" />
        </mxCell>
        <mxCell id="0lflEqWZM_XcYg7FdxWU-6" value="&lt;span style=&quot;font-size: 16px;&quot;&gt;READ 이벤트 발생&lt;/span&gt;" style="rounded=0;whiteSpace=wrap;html=1;strokeWidth=3;" vertex="1" parent="1">
          <mxGeometry x="120" y="400" width="610" height="50" as="geometry" />
        </mxCell>
        <mxCell id="9jqolAqHjXgI4w7DdtWd-7" style="edgeStyle=orthogonalEdgeStyle;rounded=0;orthogonalLoop=1;jettySize=auto;html=1;exitX=0.5;exitY=1;exitDx=0;exitDy=0;entryX=0.5;entryY=0;entryDx=0;entryDy=0;strokeWidth=3;endArrow=blockThin;endFill=1;" edge="1" parent="1" source="0lflEqWZM_XcYg7FdxWU-7" target="0lflEqWZM_XcYg7FdxWU-14">
          <mxGeometry relative="1" as="geometry" />
        </mxCell>
        <mxCell id="0lflEqWZM_XcYg7FdxWU-7" value="&lt;span style=&quot;font-size: 16px;&quot;&gt;WRITE 이벤트 발생&lt;/span&gt;" style="rounded=0;whiteSpace=wrap;html=1;strokeWidth=3;" vertex="1" parent="1">
          <mxGeometry x="770" y="400" width="290" height="50" as="geometry" />
        </mxCell>
        <mxCell id="9jqolAqHjXgI4w7DdtWd-11" style="edgeStyle=orthogonalEdgeStyle;rounded=0;orthogonalLoop=1;jettySize=auto;html=1;exitX=0.5;exitY=1;exitDx=0;exitDy=0;entryX=0.5;entryY=0;entryDx=0;entryDy=0;strokeWidth=3;endArrow=blockThin;endFill=1;" edge="1" parent="1" source="0lflEqWZM_XcYg7FdxWU-9" target="0lflEqWZM_XcYg7FdxWU-6">
          <mxGeometry relative="1" as="geometry">
            <Array as="points">
              <mxPoint x="570" y="360" />
              <mxPoint x="570" y="380" />
              <mxPoint x="425" y="380" />
            </Array>
          </mxGeometry>
        </mxCell>
        <mxCell id="9jqolAqHjXgI4w7DdtWd-12" style="edgeStyle=orthogonalEdgeStyle;rounded=0;orthogonalLoop=1;jettySize=auto;html=1;strokeWidth=3;endArrow=blockThin;endFill=1;" edge="1" parent="1" target="0lflEqWZM_XcYg7FdxWU-7">
          <mxGeometry relative="1" as="geometry">
            <mxPoint x="570" y="370" as="sourcePoint" />
            <Array as="points">
              <mxPoint x="570" y="360" />
              <mxPoint x="570" y="380" />
              <mxPoint x="915" y="380" />
            </Array>
          </mxGeometry>
        </mxCell>
        <mxCell id="0lflEqWZM_XcYg7FdxWU-9" value="&lt;span style=&quot;font-size: 16px;&quot;&gt;이벤트 리스트 fd 순회&lt;/span&gt;" style="rounded=0;whiteSpace=wrap;html=1;strokeWidth=3;" vertex="1" parent="1">
          <mxGeometry x="120" y="310" width="940" height="50" as="geometry" />
        </mxCell>
        <mxCell id="9jqolAqHjXgI4w7DdtWd-6" style="edgeStyle=orthogonalEdgeStyle;rounded=0;orthogonalLoop=1;jettySize=auto;html=1;exitX=0.5;exitY=1;exitDx=0;exitDy=0;entryX=0.5;entryY=0;entryDx=0;entryDy=0;strokeWidth=3;endArrow=blockThin;endFill=1;" edge="1" parent="1" source="0lflEqWZM_XcYg7FdxWU-14" target="Z1SarjyV387bxoBxRJpZ-13">
          <mxGeometry relative="1" as="geometry" />
        </mxCell>
        <mxCell id="0lflEqWZM_XcYg7FdxWU-14" value="&lt;span style=&quot;font-size: 16px;&quot;&gt;Client 이벤트&lt;/span&gt;" style="rounded=0;whiteSpace=wrap;html=1;strokeWidth=3;" vertex="1" parent="1">
          <mxGeometry x="770" y="490" width="290" height="50" as="geometry" />
        </mxCell>
        <mxCell id="9jqolAqHjXgI4w7DdtWd-4" style="edgeStyle=orthogonalEdgeStyle;rounded=0;orthogonalLoop=1;jettySize=auto;html=1;exitX=0.5;exitY=1;exitDx=0;exitDy=0;entryX=0.5;entryY=0;entryDx=0;entryDy=0;strokeWidth=3;endArrow=blockThin;endFill=1;" edge="1" parent="1" source="0lflEqWZM_XcYg7FdxWU-17" target="Z1SarjyV387bxoBxRJpZ-5">
          <mxGeometry relative="1" as="geometry" />
        </mxCell>
        <mxCell id="0lflEqWZM_XcYg7FdxWU-17" value="&lt;span style=&quot;font-size: 16px;&quot;&gt;Server 이벤트&lt;/span&gt;" style="rounded=0;whiteSpace=wrap;html=1;strokeWidth=3;" vertex="1" parent="1">
          <mxGeometry x="120" y="490" width="290" height="50" as="geometry" />
        </mxCell>
        <mxCell id="9jqolAqHjXgI4w7DdtWd-5" style="edgeStyle=orthogonalEdgeStyle;rounded=0;orthogonalLoop=1;jettySize=auto;html=1;exitX=0.5;exitY=1;exitDx=0;exitDy=0;entryX=0.5;entryY=0;entryDx=0;entryDy=0;strokeWidth=3;endArrow=blockThin;endFill=1;" edge="1" parent="1" source="0lflEqWZM_XcYg7FdxWU-18" target="Z1SarjyV387bxoBxRJpZ-7">
          <mxGeometry relative="1" as="geometry" />
        </mxCell>
        <mxCell id="0lflEqWZM_XcYg7FdxWU-18" value="&lt;span style=&quot;font-size: 16px;&quot;&gt;Client 이벤트&lt;/span&gt;" style="rounded=0;whiteSpace=wrap;html=1;strokeWidth=3;" vertex="1" parent="1">
          <mxGeometry x="440" y="490" width="290" height="50" as="geometry" />
        </mxCell>
        <mxCell id="9jqolAqHjXgI4w7DdtWd-25" style="edgeStyle=orthogonalEdgeStyle;rounded=0;orthogonalLoop=1;jettySize=auto;html=1;exitX=0.5;exitY=1;exitDx=0;exitDy=0;entryX=0.5;entryY=0;entryDx=0;entryDy=0;strokeWidth=3;endArrow=blockThin;endFill=1;" edge="1" parent="1" source="OSDeE9U1ssSlSpSSex_0-1" target="9jqolAqHjXgI4w7DdtWd-23">
          <mxGeometry relative="1" as="geometry">
            <Array as="points">
              <mxPoint x="460" y="920" />
            </Array>
          </mxGeometry>
        </mxCell>
        <mxCell id="9jqolAqHjXgI4w7DdtWd-27" style="edgeStyle=orthogonalEdgeStyle;rounded=0;orthogonalLoop=1;jettySize=auto;html=1;exitX=0;exitY=0.5;exitDx=0;exitDy=0;entryX=0;entryY=0.5;entryDx=0;entryDy=0;strokeWidth=3;endArrow=blockThin;endFill=1;" edge="1" parent="1" source="OSDeE9U1ssSlSpSSex_0-1" target="0lflEqWZM_XcYg7FdxWU-9">
          <mxGeometry relative="1" as="geometry">
            <Array as="points">
              <mxPoint x="80" y="905" />
              <mxPoint x="80" y="335" />
            </Array>
          </mxGeometry>
        </mxCell>
        <mxCell id="OSDeE9U1ssSlSpSSex_0-1" value="&lt;span style=&quot;font-size: 16px;&quot;&gt;이벤트 리스트 순회 종료&lt;br&gt;&lt;/span&gt;" style="rounded=0;whiteSpace=wrap;html=1;strokeWidth=3;" vertex="1" parent="1">
          <mxGeometry x="120" y="870" width="940" height="50" as="geometry" />
        </mxCell>
        <mxCell id="9jqolAqHjXgI4w7DdtWd-29" value="" style="edgeStyle=orthogonalEdgeStyle;rounded=0;orthogonalLoop=1;jettySize=auto;html=1;strokeWidth=3;endArrow=blockThin;endFill=1;" edge="1" parent="1" source="9jqolAqHjXgI4w7DdtWd-23" target="Z1SarjyV387bxoBxRJpZ-25">
          <mxGeometry relative="1" as="geometry" />
        </mxCell>
        <mxCell id="9jqolAqHjXgI4w7DdtWd-30" style="edgeStyle=orthogonalEdgeStyle;rounded=0;orthogonalLoop=1;jettySize=auto;html=1;exitX=0.5;exitY=1;exitDx=0;exitDy=0;entryX=0;entryY=0.5;entryDx=0;entryDy=0;strokeWidth=3;endArrow=blockThin;endFill=1;" edge="1" parent="1" source="9jqolAqHjXgI4w7DdtWd-23" target="0lflEqWZM_XcYg7FdxWU-4">
          <mxGeometry relative="1" as="geometry">
            <Array as="points">
              <mxPoint x="460" y="1050" />
              <mxPoint x="40" y="1050" />
              <mxPoint x="40" y="245" />
            </Array>
          </mxGeometry>
        </mxCell>
        <mxCell id="9jqolAqHjXgI4w7DdtWd-23" value="&lt;span style=&quot;font-size: 16px;&quot;&gt;Connection Timeout 검사&lt;br&gt;&lt;/span&gt;" style="rounded=0;whiteSpace=wrap;html=1;strokeWidth=3;" vertex="1" parent="1">
          <mxGeometry x="120" y="960" width="680" height="50" as="geometry" />
        </mxCell>
      </root>
    </mxGraphModel>
  </diagram>
  <diagram id="M9g7d2FF81jYp79rdxgY" name="GET_handler">
    <mxGraphModel dx="2074" dy="1088" grid="1" gridSize="10" guides="1" tooltips="1" connect="1" arrows="1" fold="1" page="1" pageScale="1" pageWidth="850" pageHeight="1100" math="0" shadow="0">
      <root>
        <mxCell id="0" />
        <mxCell id="1" parent="0" />
        <mxCell id="GMyvYdKoe5PW9vri0eFx-3" style="edgeStyle=orthogonalEdgeStyle;rounded=0;orthogonalLoop=1;jettySize=auto;html=1;exitX=0.5;exitY=1;exitDx=0;exitDy=0;entryX=0.5;entryY=0;entryDx=0;entryDy=0;strokeWidth=3;endArrow=blockThin;endFill=1;" parent="1" source="7eJt1NJ05mc4aPAgaQNr-1" target="7eJt1NJ05mc4aPAgaQNr-2" edge="1">
          <mxGeometry relative="1" as="geometry" />
        </mxCell>
        <mxCell id="7eJt1NJ05mc4aPAgaQNr-1" value="&lt;span style=&quot;font-size: 16px;&quot;&gt;GetRequestHandler 객체 생성&lt;/span&gt;" style="rounded=0;whiteSpace=wrap;html=1;strokeWidth=3;" parent="1" vertex="1">
          <mxGeometry x="80" y="40" width="690" height="50" as="geometry" />
        </mxCell>
        <mxCell id="GMyvYdKoe5PW9vri0eFx-4" style="edgeStyle=orthogonalEdgeStyle;rounded=0;orthogonalLoop=1;jettySize=auto;html=1;exitX=0.5;exitY=1;exitDx=0;exitDy=0;entryX=0.5;entryY=0;entryDx=0;entryDy=0;strokeWidth=3;endArrow=blockThin;endFill=1;" parent="1" source="7eJt1NJ05mc4aPAgaQNr-2" target="7eJt1NJ05mc4aPAgaQNr-3" edge="1">
          <mxGeometry relative="1" as="geometry" />
        </mxCell>
        <mxCell id="7eJt1NJ05mc4aPAgaQNr-2" value="requestTarget에 대한 Location Block 리다이렉션" style="rounded=0;whiteSpace=wrap;html=1;strokeWidth=3;fontSize=16;" parent="1" vertex="1">
          <mxGeometry x="80" y="130" width="690" height="50" as="geometry" />
        </mxCell>
        <mxCell id="GMyvYdKoe5PW9vri0eFx-8" style="edgeStyle=orthogonalEdgeStyle;rounded=0;orthogonalLoop=1;jettySize=auto;html=1;exitX=0.25;exitY=1;exitDx=0;exitDy=0;entryX=0.444;entryY=-0.02;entryDx=0;entryDy=0;entryPerimeter=0;strokeWidth=3;endArrow=blockThin;endFill=1;" parent="1" edge="1">
          <mxGeometry relative="1" as="geometry">
            <mxPoint x="274.5" y="270" as="sourcePoint" />
            <mxPoint x="275.1600000000001" y="309" as="targetPoint" />
            <Array as="points">
              <mxPoint x="275" y="290" />
              <mxPoint x="275" y="290" />
            </Array>
          </mxGeometry>
        </mxCell>
        <mxCell id="7eJt1NJ05mc4aPAgaQNr-3" value="HTTP 요청 메시지 유효성 검사" style="rounded=0;whiteSpace=wrap;html=1;strokeWidth=3;fontSize=16;" parent="1" vertex="1">
          <mxGeometry x="80" y="220" width="690" height="50" as="geometry" />
        </mxCell>
        <mxCell id="GMyvYdKoe5PW9vri0eFx-7" style="edgeStyle=orthogonalEdgeStyle;rounded=0;orthogonalLoop=1;jettySize=auto;html=1;exitX=0.5;exitY=0;exitDx=0;exitDy=0;entryX=0.5;entryY=0;entryDx=0;entryDy=0;" parent="1" source="7eJt1NJ05mc4aPAgaQNr-5" target="7eJt1NJ05mc4aPAgaQNr-5" edge="1">
          <mxGeometry relative="1" as="geometry" />
        </mxCell>
        <mxCell id="GMyvYdKoe5PW9vri0eFx-9" style="edgeStyle=orthogonalEdgeStyle;rounded=0;orthogonalLoop=1;jettySize=auto;html=1;exitX=0.5;exitY=1;exitDx=0;exitDy=0;entryX=0.5;entryY=0;entryDx=0;entryDy=0;strokeWidth=3;endArrow=blockThin;endFill=1;" parent="1" source="7eJt1NJ05mc4aPAgaQNr-5" target="YpVxli-ZfrWEM21YUndf-1" edge="1">
          <mxGeometry relative="1" as="geometry" />
        </mxCell>
        <mxCell id="GMyvYdKoe5PW9vri0eFx-10" style="edgeStyle=orthogonalEdgeStyle;rounded=0;orthogonalLoop=1;jettySize=auto;html=1;exitX=1;exitY=0.5;exitDx=0;exitDy=0;entryX=0;entryY=0.5;entryDx=0;entryDy=0;strokeWidth=3;endArrow=blockThin;endFill=1;" parent="1" source="7eJt1NJ05mc4aPAgaQNr-5" target="7eJt1NJ05mc4aPAgaQNr-6" edge="1">
          <mxGeometry relative="1" as="geometry" />
        </mxCell>
        <mxCell id="7eJt1NJ05mc4aPAgaQNr-5" value="HTTP 메소드 권한 검사" style="rounded=0;whiteSpace=wrap;html=1;strokeWidth=3;fontSize=16;" parent="1" vertex="1">
          <mxGeometry x="80" y="310" width="390" height="50" as="geometry" />
        </mxCell>
        <mxCell id="GMyvYdKoe5PW9vri0eFx-40" style="edgeStyle=orthogonalEdgeStyle;rounded=0;orthogonalLoop=1;jettySize=auto;html=1;exitX=1;exitY=0.5;exitDx=0;exitDy=0;entryX=1;entryY=0.5;entryDx=0;entryDy=0;strokeWidth=3;endArrow=blockThin;endFill=1;" parent="1" source="7eJt1NJ05mc4aPAgaQNr-6" target="GMyvYdKoe5PW9vri0eFx-23" edge="1">
          <mxGeometry relative="1" as="geometry">
            <Array as="points">
              <mxPoint x="810" y="335" />
              <mxPoint x="810" y="1185" />
            </Array>
          </mxGeometry>
        </mxCell>
        <mxCell id="7eJt1NJ05mc4aPAgaQNr-6" value="메소드 권한이 없으면&lt;br&gt;405 Error" style="rounded=0;whiteSpace=wrap;html=1;strokeWidth=3;fontSize=16;" parent="1" vertex="1">
          <mxGeometry x="550" y="310" width="220" height="50" as="geometry" />
        </mxCell>
        <mxCell id="GMyvYdKoe5PW9vri0eFx-11" style="edgeStyle=orthogonalEdgeStyle;rounded=0;orthogonalLoop=1;jettySize=auto;html=1;exitX=1;exitY=0.5;exitDx=0;exitDy=0;entryX=0;entryY=0.5;entryDx=0;entryDy=0;strokeWidth=3;endArrow=blockThin;endFill=1;" parent="1" source="YpVxli-ZfrWEM21YUndf-1" target="YpVxli-ZfrWEM21YUndf-3" edge="1">
          <mxGeometry relative="1" as="geometry" />
        </mxCell>
        <mxCell id="GMyvYdKoe5PW9vri0eFx-15" style="edgeStyle=orthogonalEdgeStyle;rounded=0;orthogonalLoop=1;jettySize=auto;html=1;exitX=0.5;exitY=1;exitDx=0;exitDy=0;entryX=0.5;entryY=0;entryDx=0;entryDy=0;strokeWidth=3;endArrow=blockThin;endFill=1;" parent="1" source="YpVxli-ZfrWEM21YUndf-1" target="YpVxli-ZfrWEM21YUndf-4" edge="1">
          <mxGeometry relative="1" as="geometry" />
        </mxCell>
        <mxCell id="YpVxli-ZfrWEM21YUndf-1" value="HTTP 버전 유효성 검사" style="rounded=0;whiteSpace=wrap;html=1;strokeWidth=3;fontSize=16;" parent="1" vertex="1">
          <mxGeometry x="80" y="400" width="390" height="50" as="geometry" />
        </mxCell>
        <mxCell id="GMyvYdKoe5PW9vri0eFx-39" style="edgeStyle=orthogonalEdgeStyle;rounded=0;orthogonalLoop=1;jettySize=auto;html=1;exitX=1;exitY=0.5;exitDx=0;exitDy=0;entryX=1;entryY=0.5;entryDx=0;entryDy=0;strokeWidth=3;endArrow=blockThin;endFill=1;" parent="1" source="YpVxli-ZfrWEM21YUndf-3" target="GMyvYdKoe5PW9vri0eFx-23" edge="1">
          <mxGeometry relative="1" as="geometry">
            <Array as="points">
              <mxPoint x="810" y="425" />
              <mxPoint x="810" y="1185" />
            </Array>
          </mxGeometry>
        </mxCell>
        <mxCell id="YpVxli-ZfrWEM21YUndf-3" value="메소드 버전 유효성 검사 실패&lt;br&gt;400 Error" style="rounded=0;whiteSpace=wrap;html=1;strokeWidth=3;fontSize=16;" parent="1" vertex="1">
          <mxGeometry x="550" y="400" width="220" height="50" as="geometry" />
        </mxCell>
        <mxCell id="GMyvYdKoe5PW9vri0eFx-12" style="edgeStyle=orthogonalEdgeStyle;rounded=0;orthogonalLoop=1;jettySize=auto;html=1;exitX=1;exitY=0.5;exitDx=0;exitDy=0;entryX=0;entryY=0.5;entryDx=0;entryDy=0;strokeWidth=3;endArrow=blockThin;endFill=1;" parent="1" source="YpVxli-ZfrWEM21YUndf-4" target="YpVxli-ZfrWEM21YUndf-5" edge="1">
          <mxGeometry relative="1" as="geometry" />
        </mxCell>
        <mxCell id="GMyvYdKoe5PW9vri0eFx-16" style="edgeStyle=orthogonalEdgeStyle;rounded=0;orthogonalLoop=1;jettySize=auto;html=1;exitX=0.5;exitY=1;exitDx=0;exitDy=0;entryX=0.5;entryY=0;entryDx=0;entryDy=0;strokeWidth=3;endArrow=blockThin;endFill=1;" parent="1" source="YpVxli-ZfrWEM21YUndf-4" target="YpVxli-ZfrWEM21YUndf-6" edge="1">
          <mxGeometry relative="1" as="geometry" />
        </mxCell>
        <mxCell id="YpVxli-ZfrWEM21YUndf-4" value="HTTP 메세지 바디 크기 검사" style="rounded=0;whiteSpace=wrap;html=1;strokeWidth=3;fontSize=16;" parent="1" vertex="1">
          <mxGeometry x="80" y="490" width="390" height="50" as="geometry" />
        </mxCell>
        <mxCell id="GMyvYdKoe5PW9vri0eFx-38" style="edgeStyle=orthogonalEdgeStyle;rounded=0;orthogonalLoop=1;jettySize=auto;html=1;exitX=1;exitY=0.5;exitDx=0;exitDy=0;entryX=1;entryY=0.5;entryDx=0;entryDy=0;strokeWidth=3;endArrow=blockThin;endFill=1;" parent="1" source="YpVxli-ZfrWEM21YUndf-5" target="GMyvYdKoe5PW9vri0eFx-23" edge="1">
          <mxGeometry relative="1" as="geometry">
            <Array as="points">
              <mxPoint x="810" y="515" />
              <mxPoint x="810" y="1185" />
            </Array>
          </mxGeometry>
        </mxCell>
        <mxCell id="YpVxli-ZfrWEM21YUndf-5" value="메시지 바디가 너무 크면&lt;br&gt;413 Error" style="rounded=0;whiteSpace=wrap;html=1;strokeWidth=3;fontSize=16;" parent="1" vertex="1">
          <mxGeometry x="550" y="490" width="220" height="50" as="geometry" />
        </mxCell>
        <mxCell id="GMyvYdKoe5PW9vri0eFx-13" style="edgeStyle=orthogonalEdgeStyle;rounded=0;orthogonalLoop=1;jettySize=auto;html=1;exitX=1;exitY=0.5;exitDx=0;exitDy=0;entryX=0;entryY=0.5;entryDx=0;entryDy=0;strokeWidth=3;endArrow=blockThin;endFill=1;" parent="1" source="YpVxli-ZfrWEM21YUndf-6" target="YpVxli-ZfrWEM21YUndf-9" edge="1">
          <mxGeometry relative="1" as="geometry" />
        </mxCell>
        <mxCell id="GMyvYdKoe5PW9vri0eFx-14" style="edgeStyle=orthogonalEdgeStyle;rounded=0;orthogonalLoop=1;jettySize=auto;html=1;exitX=1;exitY=0.5;exitDx=0;exitDy=0;entryX=0;entryY=0.5;entryDx=0;entryDy=0;strokeWidth=3;endArrow=blockThin;endFill=1;" parent="1" source="YpVxli-ZfrWEM21YUndf-6" target="GMyvYdKoe5PW9vri0eFx-1" edge="1">
          <mxGeometry relative="1" as="geometry" />
        </mxCell>
        <mxCell id="GMyvYdKoe5PW9vri0eFx-17" style="edgeStyle=orthogonalEdgeStyle;rounded=0;orthogonalLoop=1;jettySize=auto;html=1;exitX=0.5;exitY=1;exitDx=0;exitDy=0;entryX=0.283;entryY=-0.02;entryDx=0;entryDy=0;entryPerimeter=0;strokeWidth=3;endArrow=blockThin;endFill=1;" parent="1" source="YpVxli-ZfrWEM21YUndf-6" target="GMyvYdKoe5PW9vri0eFx-2" edge="1">
          <mxGeometry relative="1" as="geometry" />
        </mxCell>
        <mxCell id="YpVxli-ZfrWEM21YUndf-6" value="requestTarget에 대한 파일 경로 찾기" style="rounded=0;whiteSpace=wrap;html=1;strokeWidth=3;fontSize=16;" parent="1" vertex="1">
          <mxGeometry x="80" y="580" width="390" height="50" as="geometry" />
        </mxCell>
        <mxCell id="GMyvYdKoe5PW9vri0eFx-37" style="edgeStyle=orthogonalEdgeStyle;rounded=0;orthogonalLoop=1;jettySize=auto;html=1;exitX=1;exitY=0.5;exitDx=0;exitDy=0;entryX=1;entryY=0.5;entryDx=0;entryDy=0;strokeWidth=3;endArrow=blockThin;endFill=1;" parent="1" source="YpVxli-ZfrWEM21YUndf-9" target="GMyvYdKoe5PW9vri0eFx-23" edge="1">
          <mxGeometry relative="1" as="geometry">
            <Array as="points">
              <mxPoint x="810" y="605" />
              <mxPoint x="810" y="1185" />
            </Array>
          </mxGeometry>
        </mxCell>
        <mxCell id="YpVxli-ZfrWEM21YUndf-9" value="파일 권한 없으면&lt;br&gt;500 Error" style="rounded=0;whiteSpace=wrap;html=1;strokeWidth=3;fontSize=16;" parent="1" vertex="1">
          <mxGeometry x="550" y="580" width="220" height="50" as="geometry" />
        </mxCell>
        <mxCell id="GMyvYdKoe5PW9vri0eFx-36" style="edgeStyle=orthogonalEdgeStyle;rounded=0;orthogonalLoop=1;jettySize=auto;html=1;exitX=1;exitY=0.5;exitDx=0;exitDy=0;entryX=1;entryY=0.5;entryDx=0;entryDy=0;strokeWidth=3;endArrow=blockThin;endFill=1;" parent="1" source="GMyvYdKoe5PW9vri0eFx-1" target="GMyvYdKoe5PW9vri0eFx-23" edge="1">
          <mxGeometry relative="1" as="geometry">
            <Array as="points">
              <mxPoint x="810" y="695" />
              <mxPoint x="810" y="1185" />
            </Array>
          </mxGeometry>
        </mxCell>
        <mxCell id="GMyvYdKoe5PW9vri0eFx-1" value="파일 경로 없으면&lt;br&gt;404 Error" style="rounded=0;whiteSpace=wrap;html=1;strokeWidth=3;fontSize=16;" parent="1" vertex="1">
          <mxGeometry x="550" y="670" width="220" height="50" as="geometry" />
        </mxCell>
        <mxCell id="GMyvYdKoe5PW9vri0eFx-20" style="edgeStyle=orthogonalEdgeStyle;rounded=0;orthogonalLoop=1;jettySize=auto;html=1;exitX=0.5;exitY=1;exitDx=0;exitDy=0;entryX=0.5;entryY=0;entryDx=0;entryDy=0;strokeWidth=3;endArrow=blockThin;endFill=1;" parent="1" source="GMyvYdKoe5PW9vri0eFx-2" target="GMyvYdKoe5PW9vri0eFx-18" edge="1">
          <mxGeometry relative="1" as="geometry" />
        </mxCell>
        <mxCell id="GMyvYdKoe5PW9vri0eFx-21" style="edgeStyle=orthogonalEdgeStyle;rounded=0;orthogonalLoop=1;jettySize=auto;html=1;exitX=0.5;exitY=1;exitDx=0;exitDy=0;entryX=0.5;entryY=0;entryDx=0;entryDy=0;strokeWidth=3;endArrow=blockThin;endFill=1;" parent="1" source="GMyvYdKoe5PW9vri0eFx-2" target="GMyvYdKoe5PW9vri0eFx-19" edge="1">
          <mxGeometry relative="1" as="geometry" />
        </mxCell>
        <mxCell id="GMyvYdKoe5PW9vri0eFx-2" value="CGI 파일인지 일반 파일인지 판별" style="rounded=0;whiteSpace=wrap;html=1;strokeWidth=3;fontSize=16;" parent="1" vertex="1">
          <mxGeometry x="80" y="760" width="690" height="50" as="geometry" />
        </mxCell>
        <mxCell id="GMyvYdKoe5PW9vri0eFx-27" style="edgeStyle=orthogonalEdgeStyle;rounded=0;orthogonalLoop=1;jettySize=auto;html=1;exitX=0.5;exitY=1;exitDx=0;exitDy=0;entryX=0.5;entryY=0;entryDx=0;entryDy=0;strokeWidth=3;endArrow=blockThin;endFill=1;" parent="1" source="GMyvYdKoe5PW9vri0eFx-18" target="GMyvYdKoe5PW9vri0eFx-24" edge="1">
          <mxGeometry relative="1" as="geometry" />
        </mxCell>
        <mxCell id="GMyvYdKoe5PW9vri0eFx-28" style="edgeStyle=orthogonalEdgeStyle;rounded=0;orthogonalLoop=1;jettySize=auto;html=1;exitX=0.5;exitY=1;exitDx=0;exitDy=0;entryX=0.5;entryY=0;entryDx=0;entryDy=0;strokeWidth=3;endArrow=blockThin;endFill=1;" parent="1" source="GMyvYdKoe5PW9vri0eFx-18" target="GMyvYdKoe5PW9vri0eFx-22" edge="1">
          <mxGeometry relative="1" as="geometry" />
        </mxCell>
        <mxCell id="GMyvYdKoe5PW9vri0eFx-18" value="디렉토리인지 일반파일인지 판별" style="rounded=0;whiteSpace=wrap;html=1;strokeWidth=3;fontSize=16;" parent="1" vertex="1">
          <mxGeometry x="80" y="890" width="320" height="50" as="geometry" />
        </mxCell>
        <mxCell id="GMyvYdKoe5PW9vri0eFx-26" style="edgeStyle=orthogonalEdgeStyle;rounded=0;orthogonalLoop=1;jettySize=auto;html=1;exitX=0.5;exitY=1;exitDx=0;exitDy=0;entryX=0.768;entryY=-0.05;entryDx=0;entryDy=0;entryPerimeter=0;strokeWidth=3;endArrow=blockThin;endFill=1;" parent="1" source="GMyvYdKoe5PW9vri0eFx-19" target="GMyvYdKoe5PW9vri0eFx-23" edge="1">
          <mxGeometry relative="1" as="geometry" />
        </mxCell>
        <mxCell id="GMyvYdKoe5PW9vri0eFx-19" value="CGI 실행 ( CGI 객체 )" style="rounded=0;whiteSpace=wrap;html=1;strokeWidth=3;fontSize=16;" parent="1" vertex="1">
          <mxGeometry x="450" y="890" width="320" height="230" as="geometry" />
        </mxCell>
        <mxCell id="fCxtK-ErBdNucKPOzTwh-13" style="edgeStyle=orthogonalEdgeStyle;rounded=0;orthogonalLoop=1;jettySize=auto;html=1;exitX=0.5;exitY=1;exitDx=0;exitDy=0;entryX=0.362;entryY=-0.04;entryDx=0;entryDy=0;entryPerimeter=0;strokeWidth=3;endArrow=blockThin;endFill=1;" parent="1" source="GMyvYdKoe5PW9vri0eFx-22" target="GMyvYdKoe5PW9vri0eFx-23" edge="1">
          <mxGeometry relative="1" as="geometry" />
        </mxCell>
        <mxCell id="GMyvYdKoe5PW9vri0eFx-22" value="파일 내용 읽기&lt;br&gt;(실패시 500 Error)" style="rounded=0;whiteSpace=wrap;html=1;strokeWidth=3;fontSize=16;" parent="1" vertex="1">
          <mxGeometry x="260" y="980" width="140" height="140" as="geometry" />
        </mxCell>
        <mxCell id="fCxtK-ErBdNucKPOzTwh-3" style="edgeStyle=orthogonalEdgeStyle;rounded=0;orthogonalLoop=1;jettySize=auto;html=1;exitX=0.5;exitY=1;exitDx=0;exitDy=0;strokeWidth=3;endArrow=blockThin;endFill=1;" parent="1" source="GMyvYdKoe5PW9vri0eFx-23" target="fCxtK-ErBdNucKPOzTwh-2" edge="1">
          <mxGeometry relative="1" as="geometry" />
        </mxCell>
        <mxCell id="GMyvYdKoe5PW9vri0eFx-23" value="GET 메소드면 메세지 바디에 결과 저장&lt;br&gt;HEAD 메소드면 결과 값 저장X" style="rounded=0;whiteSpace=wrap;html=1;strokeWidth=3;fontSize=16;" parent="1" vertex="1">
          <mxGeometry x="80" y="1160" width="690" height="50" as="geometry" />
        </mxCell>
        <mxCell id="GMyvYdKoe5PW9vri0eFx-33" style="edgeStyle=orthogonalEdgeStyle;rounded=0;orthogonalLoop=1;jettySize=auto;html=1;exitX=0.5;exitY=1;exitDx=0;exitDy=0;entryX=0.5;entryY=0;entryDx=0;entryDy=0;strokeWidth=3;endArrow=classicThin;endFill=0;" parent="1" source="GMyvYdKoe5PW9vri0eFx-24" target="GMyvYdKoe5PW9vri0eFx-32" edge="1">
          <mxGeometry relative="1" as="geometry" />
        </mxCell>
        <mxCell id="GMyvYdKoe5PW9vri0eFx-24" value="autoindex 확인" style="rounded=0;whiteSpace=wrap;html=1;strokeWidth=3;fontSize=16;" parent="1" vertex="1">
          <mxGeometry x="80" y="980" width="140" height="50" as="geometry" />
        </mxCell>
        <mxCell id="GMyvYdKoe5PW9vri0eFx-35" style="edgeStyle=orthogonalEdgeStyle;rounded=0;orthogonalLoop=1;jettySize=auto;html=1;exitX=0.5;exitY=1;exitDx=0;exitDy=0;entryX=0.101;entryY=0;entryDx=0;entryDy=0;entryPerimeter=0;strokeWidth=3;endArrow=blockThin;endFill=1;" parent="1" source="GMyvYdKoe5PW9vri0eFx-32" target="GMyvYdKoe5PW9vri0eFx-23" edge="1">
          <mxGeometry relative="1" as="geometry" />
        </mxCell>
        <mxCell id="GMyvYdKoe5PW9vri0eFx-32" value="디렉토리 리스팅&lt;br&gt;( off 면 404 Error)" style="rounded=0;whiteSpace=wrap;html=1;strokeWidth=3;fontSize=16;" parent="1" vertex="1">
          <mxGeometry x="80" y="1070" width="140" height="50" as="geometry" />
        </mxCell>
        <mxCell id="GMyvYdKoe5PW9vri0eFx-41" style="edgeStyle=orthogonalEdgeStyle;rounded=0;orthogonalLoop=1;jettySize=auto;html=1;exitX=0.5;exitY=1;exitDx=0;exitDy=0;" parent="1" source="GMyvYdKoe5PW9vri0eFx-19" target="GMyvYdKoe5PW9vri0eFx-19" edge="1">
          <mxGeometry relative="1" as="geometry" />
        </mxCell>
        <mxCell id="fCxtK-ErBdNucKPOzTwh-2" value="HTTP 응답 메세지 생성" style="rounded=0;whiteSpace=wrap;html=1;strokeWidth=3;fontSize=16;" parent="1" vertex="1">
          <mxGeometry x="80" y="1250" width="690" height="50" as="geometry" />
        </mxCell>
      </root>
    </mxGraphModel>
  </diagram>
  <diagram id="TLN0P_UCxPm7Ky4UwdBO" name="POST_handler">
    <mxGraphModel dx="2074" dy="1088" grid="1" gridSize="10" guides="1" tooltips="1" connect="1" arrows="1" fold="1" page="1" pageScale="1" pageWidth="850" pageHeight="1100" math="0" shadow="0">
      <root>
        <mxCell id="0" />
        <mxCell id="1" parent="0" />
        <mxCell id="vDAjrCye8cIqmtdn82lr-1" style="edgeStyle=orthogonalEdgeStyle;rounded=0;orthogonalLoop=1;jettySize=auto;html=1;exitX=0.5;exitY=1;exitDx=0;exitDy=0;entryX=0.5;entryY=0;entryDx=0;entryDy=0;strokeWidth=3;endArrow=blockThin;endFill=1;" parent="1" source="vDAjrCye8cIqmtdn82lr-2" target="vDAjrCye8cIqmtdn82lr-4" edge="1">
          <mxGeometry relative="1" as="geometry" />
        </mxCell>
        <mxCell id="vDAjrCye8cIqmtdn82lr-2" value="&lt;span style=&quot;font-size: 16px;&quot;&gt;PostRequestHandler 객체 생성&lt;/span&gt;" style="rounded=0;whiteSpace=wrap;html=1;strokeWidth=3;" parent="1" vertex="1">
          <mxGeometry x="80" y="40" width="690" height="50" as="geometry" />
        </mxCell>
        <mxCell id="vDAjrCye8cIqmtdn82lr-3" style="edgeStyle=orthogonalEdgeStyle;rounded=0;orthogonalLoop=1;jettySize=auto;html=1;exitX=0.5;exitY=1;exitDx=0;exitDy=0;entryX=0.5;entryY=0;entryDx=0;entryDy=0;strokeWidth=3;endArrow=blockThin;endFill=1;" parent="1" source="vDAjrCye8cIqmtdn82lr-4" target="vDAjrCye8cIqmtdn82lr-6" edge="1">
          <mxGeometry relative="1" as="geometry" />
        </mxCell>
        <mxCell id="vDAjrCye8cIqmtdn82lr-4" value="requestTarget에 대한 Location Block 리다이렉션" style="rounded=0;whiteSpace=wrap;html=1;strokeWidth=3;fontSize=16;" parent="1" vertex="1">
          <mxGeometry x="80" y="130" width="690" height="50" as="geometry" />
        </mxCell>
        <mxCell id="vDAjrCye8cIqmtdn82lr-5" style="edgeStyle=orthogonalEdgeStyle;rounded=0;orthogonalLoop=1;jettySize=auto;html=1;exitX=0.25;exitY=1;exitDx=0;exitDy=0;entryX=0.444;entryY=-0.02;entryDx=0;entryDy=0;entryPerimeter=0;strokeWidth=3;endArrow=blockThin;endFill=1;" parent="1" edge="1">
          <mxGeometry relative="1" as="geometry">
            <mxPoint x="274.5" y="270" as="sourcePoint" />
            <mxPoint x="275.1600000000001" y="309" as="targetPoint" />
            <Array as="points">
              <mxPoint x="275" y="290" />
              <mxPoint x="275" y="290" />
            </Array>
          </mxGeometry>
        </mxCell>
        <mxCell id="vDAjrCye8cIqmtdn82lr-6" value="HTTP 요청 메시지 유효성 검사" style="rounded=0;whiteSpace=wrap;html=1;strokeWidth=3;fontSize=16;" parent="1" vertex="1">
          <mxGeometry x="80" y="220" width="690" height="50" as="geometry" />
        </mxCell>
        <mxCell id="vDAjrCye8cIqmtdn82lr-7" style="edgeStyle=orthogonalEdgeStyle;rounded=0;orthogonalLoop=1;jettySize=auto;html=1;exitX=0.5;exitY=0;exitDx=0;exitDy=0;entryX=0.5;entryY=0;entryDx=0;entryDy=0;" parent="1" source="vDAjrCye8cIqmtdn82lr-10" target="vDAjrCye8cIqmtdn82lr-10" edge="1">
          <mxGeometry relative="1" as="geometry" />
        </mxCell>
        <mxCell id="vDAjrCye8cIqmtdn82lr-8" style="edgeStyle=orthogonalEdgeStyle;rounded=0;orthogonalLoop=1;jettySize=auto;html=1;exitX=0.5;exitY=1;exitDx=0;exitDy=0;entryX=0.5;entryY=0;entryDx=0;entryDy=0;strokeWidth=3;endArrow=blockThin;endFill=1;" parent="1" source="vDAjrCye8cIqmtdn82lr-10" target="vDAjrCye8cIqmtdn82lr-15" edge="1">
          <mxGeometry relative="1" as="geometry" />
        </mxCell>
        <mxCell id="vDAjrCye8cIqmtdn82lr-9" style="edgeStyle=orthogonalEdgeStyle;rounded=0;orthogonalLoop=1;jettySize=auto;html=1;exitX=1;exitY=0.5;exitDx=0;exitDy=0;entryX=0;entryY=0.5;entryDx=0;entryDy=0;strokeWidth=3;endArrow=blockThin;endFill=1;" parent="1" source="vDAjrCye8cIqmtdn82lr-10" target="vDAjrCye8cIqmtdn82lr-12" edge="1">
          <mxGeometry relative="1" as="geometry" />
        </mxCell>
        <mxCell id="vDAjrCye8cIqmtdn82lr-10" value="HTTP 메소드 권한 검사" style="rounded=0;whiteSpace=wrap;html=1;strokeWidth=3;fontSize=16;" parent="1" vertex="1">
          <mxGeometry x="80" y="310" width="390" height="50" as="geometry" />
        </mxCell>
        <mxCell id="vDAjrCye8cIqmtdn82lr-11" style="edgeStyle=orthogonalEdgeStyle;rounded=0;orthogonalLoop=1;jettySize=auto;html=1;exitX=1;exitY=0.5;exitDx=0;exitDy=0;entryX=1;entryY=0.5;entryDx=0;entryDy=0;strokeWidth=3;endArrow=blockThin;endFill=1;" parent="1" source="vDAjrCye8cIqmtdn82lr-12" target="vDAjrCye8cIqmtdn82lr-42" edge="1">
          <mxGeometry relative="1" as="geometry">
            <Array as="points">
              <mxPoint x="810" y="335" />
              <mxPoint x="810" y="875" />
            </Array>
          </mxGeometry>
        </mxCell>
        <mxCell id="vDAjrCye8cIqmtdn82lr-12" value="메소드 권한이 없으면&lt;br&gt;405 Error" style="rounded=0;whiteSpace=wrap;html=1;strokeWidth=3;fontSize=16;" parent="1" vertex="1">
          <mxGeometry x="550" y="310" width="220" height="50" as="geometry" />
        </mxCell>
        <mxCell id="vDAjrCye8cIqmtdn82lr-13" style="edgeStyle=orthogonalEdgeStyle;rounded=0;orthogonalLoop=1;jettySize=auto;html=1;exitX=1;exitY=0.5;exitDx=0;exitDy=0;entryX=0;entryY=0.5;entryDx=0;entryDy=0;strokeWidth=3;endArrow=blockThin;endFill=1;" parent="1" source="vDAjrCye8cIqmtdn82lr-15" target="vDAjrCye8cIqmtdn82lr-17" edge="1">
          <mxGeometry relative="1" as="geometry" />
        </mxCell>
        <mxCell id="vDAjrCye8cIqmtdn82lr-14" style="edgeStyle=orthogonalEdgeStyle;rounded=0;orthogonalLoop=1;jettySize=auto;html=1;exitX=0.5;exitY=1;exitDx=0;exitDy=0;entryX=0.5;entryY=0;entryDx=0;entryDy=0;strokeWidth=3;endArrow=blockThin;endFill=1;" parent="1" source="vDAjrCye8cIqmtdn82lr-15" target="vDAjrCye8cIqmtdn82lr-20" edge="1">
          <mxGeometry relative="1" as="geometry" />
        </mxCell>
        <mxCell id="vDAjrCye8cIqmtdn82lr-15" value="HTTP 버전 유효성 검사" style="rounded=0;whiteSpace=wrap;html=1;strokeWidth=3;fontSize=16;" parent="1" vertex="1">
          <mxGeometry x="80" y="400" width="390" height="50" as="geometry" />
        </mxCell>
        <mxCell id="vDAjrCye8cIqmtdn82lr-16" style="edgeStyle=orthogonalEdgeStyle;rounded=0;orthogonalLoop=1;jettySize=auto;html=1;exitX=1;exitY=0.5;exitDx=0;exitDy=0;entryX=1;entryY=0.5;entryDx=0;entryDy=0;strokeWidth=3;endArrow=blockThin;endFill=1;" parent="1" source="vDAjrCye8cIqmtdn82lr-17" target="vDAjrCye8cIqmtdn82lr-42" edge="1">
          <mxGeometry relative="1" as="geometry">
            <Array as="points">
              <mxPoint x="810" y="425" />
              <mxPoint x="810" y="875" />
            </Array>
          </mxGeometry>
        </mxCell>
        <mxCell id="vDAjrCye8cIqmtdn82lr-17" value="메소드 버전 유효성 검사 실패&lt;br&gt;400 Error" style="rounded=0;whiteSpace=wrap;html=1;strokeWidth=3;fontSize=16;" parent="1" vertex="1">
          <mxGeometry x="550" y="400" width="220" height="50" as="geometry" />
        </mxCell>
        <mxCell id="vDAjrCye8cIqmtdn82lr-18" style="edgeStyle=orthogonalEdgeStyle;rounded=0;orthogonalLoop=1;jettySize=auto;html=1;exitX=1;exitY=0.5;exitDx=0;exitDy=0;entryX=0;entryY=0.5;entryDx=0;entryDy=0;strokeWidth=3;endArrow=blockThin;endFill=1;" parent="1" source="vDAjrCye8cIqmtdn82lr-20" target="vDAjrCye8cIqmtdn82lr-22" edge="1">
          <mxGeometry relative="1" as="geometry" />
        </mxCell>
        <mxCell id="vDAjrCye8cIqmtdn82lr-19" style="edgeStyle=orthogonalEdgeStyle;rounded=0;orthogonalLoop=1;jettySize=auto;html=1;exitX=0.5;exitY=1;exitDx=0;exitDy=0;entryX=0.5;entryY=0;entryDx=0;entryDy=0;strokeWidth=3;endArrow=blockThin;endFill=1;" parent="1" source="vDAjrCye8cIqmtdn82lr-20" target="vDAjrCye8cIqmtdn82lr-26" edge="1">
          <mxGeometry relative="1" as="geometry" />
        </mxCell>
        <mxCell id="vDAjrCye8cIqmtdn82lr-20" value="HTTP 메세지 바디 크기 검사" style="rounded=0;whiteSpace=wrap;html=1;strokeWidth=3;fontSize=16;" parent="1" vertex="1">
          <mxGeometry x="80" y="490" width="390" height="50" as="geometry" />
        </mxCell>
        <mxCell id="vDAjrCye8cIqmtdn82lr-21" style="edgeStyle=orthogonalEdgeStyle;rounded=0;orthogonalLoop=1;jettySize=auto;html=1;exitX=1;exitY=0.5;exitDx=0;exitDy=0;entryX=1;entryY=0.5;entryDx=0;entryDy=0;strokeWidth=3;endArrow=blockThin;endFill=1;" parent="1" source="vDAjrCye8cIqmtdn82lr-22" target="vDAjrCye8cIqmtdn82lr-42" edge="1">
          <mxGeometry relative="1" as="geometry">
            <Array as="points">
              <mxPoint x="810" y="515" />
              <mxPoint x="810" y="875" />
            </Array>
          </mxGeometry>
        </mxCell>
        <mxCell id="vDAjrCye8cIqmtdn82lr-22" value="메시지 바디가 너무 크면&lt;br&gt;413 Error" style="rounded=0;whiteSpace=wrap;html=1;strokeWidth=3;fontSize=16;" parent="1" vertex="1">
          <mxGeometry x="550" y="490" width="220" height="50" as="geometry" />
        </mxCell>
        <mxCell id="vDAjrCye8cIqmtdn82lr-23" style="edgeStyle=orthogonalEdgeStyle;rounded=0;orthogonalLoop=1;jettySize=auto;html=1;exitX=1;exitY=0.5;exitDx=0;exitDy=0;entryX=0;entryY=0.5;entryDx=0;entryDy=0;strokeWidth=3;endArrow=blockThin;endFill=1;" parent="1" source="vDAjrCye8cIqmtdn82lr-26" target="vDAjrCye8cIqmtdn82lr-28" edge="1">
          <mxGeometry relative="1" as="geometry" />
        </mxCell>
        <mxCell id="vDAjrCye8cIqmtdn82lr-24" style="edgeStyle=orthogonalEdgeStyle;rounded=0;orthogonalLoop=1;jettySize=auto;html=1;exitX=1;exitY=0.5;exitDx=0;exitDy=0;entryX=0;entryY=0.5;entryDx=0;entryDy=0;strokeWidth=3;endArrow=blockThin;endFill=1;" parent="1" source="vDAjrCye8cIqmtdn82lr-26" target="vDAjrCye8cIqmtdn82lr-30" edge="1">
          <mxGeometry relative="1" as="geometry" />
        </mxCell>
        <mxCell id="vDAjrCye8cIqmtdn82lr-25" style="edgeStyle=orthogonalEdgeStyle;rounded=0;orthogonalLoop=1;jettySize=auto;html=1;exitX=0.5;exitY=1;exitDx=0;exitDy=0;entryX=0.283;entryY=-0.02;entryDx=0;entryDy=0;entryPerimeter=0;strokeWidth=3;endArrow=blockThin;endFill=1;" parent="1" source="vDAjrCye8cIqmtdn82lr-26" edge="1">
          <mxGeometry relative="1" as="geometry">
            <mxPoint x="275.27" y="759" as="targetPoint" />
          </mxGeometry>
        </mxCell>
        <mxCell id="vDAjrCye8cIqmtdn82lr-26" value="requestTarget에 대한 파일 경로 찾기" style="rounded=0;whiteSpace=wrap;html=1;strokeWidth=3;fontSize=16;" parent="1" vertex="1">
          <mxGeometry x="80" y="580" width="390" height="50" as="geometry" />
        </mxCell>
        <mxCell id="vDAjrCye8cIqmtdn82lr-27" style="edgeStyle=orthogonalEdgeStyle;rounded=0;orthogonalLoop=1;jettySize=auto;html=1;exitX=1;exitY=0.5;exitDx=0;exitDy=0;entryX=1;entryY=0.5;entryDx=0;entryDy=0;strokeWidth=3;endArrow=blockThin;endFill=1;" parent="1" source="vDAjrCye8cIqmtdn82lr-28" target="vDAjrCye8cIqmtdn82lr-42" edge="1">
          <mxGeometry relative="1" as="geometry">
            <Array as="points">
              <mxPoint x="810" y="605" />
              <mxPoint x="810" y="875" />
            </Array>
          </mxGeometry>
        </mxCell>
        <mxCell id="vDAjrCye8cIqmtdn82lr-28" value="파일 권한 없으면&lt;br&gt;500 Error" style="rounded=0;whiteSpace=wrap;html=1;strokeWidth=3;fontSize=16;" parent="1" vertex="1">
          <mxGeometry x="550" y="580" width="220" height="50" as="geometry" />
        </mxCell>
        <mxCell id="vDAjrCye8cIqmtdn82lr-29" style="edgeStyle=orthogonalEdgeStyle;rounded=0;orthogonalLoop=1;jettySize=auto;html=1;exitX=1;exitY=0.5;exitDx=0;exitDy=0;entryX=1;entryY=0.5;entryDx=0;entryDy=0;strokeWidth=3;endArrow=blockThin;endFill=1;" parent="1" source="vDAjrCye8cIqmtdn82lr-30" target="vDAjrCye8cIqmtdn82lr-42" edge="1">
          <mxGeometry relative="1" as="geometry">
            <Array as="points">
              <mxPoint x="810" y="695" />
              <mxPoint x="810" y="875" />
            </Array>
          </mxGeometry>
        </mxCell>
        <mxCell id="vDAjrCye8cIqmtdn82lr-30" value="파일 경로 없으면&lt;br&gt;404 Error" style="rounded=0;whiteSpace=wrap;html=1;strokeWidth=3;fontSize=16;" parent="1" vertex="1">
          <mxGeometry x="550" y="670" width="220" height="50" as="geometry" />
        </mxCell>
        <mxCell id="tj2mk9wsn7hPzKJsC_mP-1" style="edgeStyle=orthogonalEdgeStyle;rounded=0;orthogonalLoop=1;jettySize=auto;html=1;exitX=0.5;exitY=1;exitDx=0;exitDy=0;entryX=0.5;entryY=0;entryDx=0;entryDy=0;strokeWidth=3;endArrow=blockThin;endFill=1;" parent="1" source="vDAjrCye8cIqmtdn82lr-38" target="vDAjrCye8cIqmtdn82lr-42" edge="1">
          <mxGeometry relative="1" as="geometry" />
        </mxCell>
        <mxCell id="vDAjrCye8cIqmtdn82lr-38" value="CGI 실행 ( CGI 객체 )" style="rounded=0;whiteSpace=wrap;html=1;strokeWidth=3;fontSize=16;" parent="1" vertex="1">
          <mxGeometry x="80" y="760" width="690" height="50" as="geometry" />
        </mxCell>
        <mxCell id="vDAjrCye8cIqmtdn82lr-42" value="HTTP 응답 메세지 생성" style="rounded=0;whiteSpace=wrap;html=1;strokeWidth=3;fontSize=16;" parent="1" vertex="1">
          <mxGeometry x="80" y="850" width="690" height="50" as="geometry" />
        </mxCell>
        <mxCell id="vDAjrCye8cIqmtdn82lr-47" style="edgeStyle=orthogonalEdgeStyle;rounded=0;orthogonalLoop=1;jettySize=auto;html=1;exitX=0.5;exitY=1;exitDx=0;exitDy=0;" parent="1" source="vDAjrCye8cIqmtdn82lr-38" target="vDAjrCye8cIqmtdn82lr-38" edge="1">
          <mxGeometry relative="1" as="geometry" />
        </mxCell>
      </root>
    </mxGraphModel>
  </diagram>
  <diagram id="4otNhrZOlavnyWs3Wlid" name="DELETE_handler">
    <mxGraphModel dx="1478" dy="899" grid="1" gridSize="10" guides="1" tooltips="1" connect="1" arrows="1" fold="1" page="1" pageScale="1" pageWidth="850" pageHeight="1100" math="0" shadow="0">
      <root>
        <mxCell id="0" />
        <mxCell id="1" parent="0" />
        <mxCell id="QgiZUQYlci3NkOVuFy5h-1" style="edgeStyle=orthogonalEdgeStyle;rounded=0;orthogonalLoop=1;jettySize=auto;html=1;exitX=0.5;exitY=1;exitDx=0;exitDy=0;entryX=0.5;entryY=0;entryDx=0;entryDy=0;strokeWidth=3;endArrow=blockThin;endFill=1;" parent="1" source="QgiZUQYlci3NkOVuFy5h-2" target="QgiZUQYlci3NkOVuFy5h-4" edge="1">
          <mxGeometry relative="1" as="geometry" />
        </mxCell>
        <mxCell id="QgiZUQYlci3NkOVuFy5h-2" value="&lt;span style=&quot;font-size: 16px;&quot;&gt;DeleteRequestHandler 객체 생성&lt;/span&gt;" style="rounded=0;whiteSpace=wrap;html=1;strokeWidth=3;" parent="1" vertex="1">
          <mxGeometry x="80" y="55" width="690" height="50" as="geometry" />
        </mxCell>
        <mxCell id="QgiZUQYlci3NkOVuFy5h-3" style="edgeStyle=orthogonalEdgeStyle;rounded=0;orthogonalLoop=1;jettySize=auto;html=1;exitX=0.5;exitY=1;exitDx=0;exitDy=0;entryX=0.5;entryY=0;entryDx=0;entryDy=0;strokeWidth=3;endArrow=blockThin;endFill=1;" parent="1" source="QgiZUQYlci3NkOVuFy5h-4" target="QgiZUQYlci3NkOVuFy5h-6" edge="1">
          <mxGeometry relative="1" as="geometry" />
        </mxCell>
        <mxCell id="QgiZUQYlci3NkOVuFy5h-4" value="requestTarget에 대한 Location Block 리다이렉션" style="rounded=0;whiteSpace=wrap;html=1;strokeWidth=3;fontSize=16;" parent="1" vertex="1">
          <mxGeometry x="80" y="145" width="690" height="50" as="geometry" />
        </mxCell>
        <mxCell id="QgiZUQYlci3NkOVuFy5h-5" style="edgeStyle=orthogonalEdgeStyle;rounded=0;orthogonalLoop=1;jettySize=auto;html=1;exitX=0.25;exitY=1;exitDx=0;exitDy=0;entryX=0.444;entryY=-0.02;entryDx=0;entryDy=0;entryPerimeter=0;strokeWidth=3;endArrow=blockThin;endFill=1;" parent="1" edge="1">
          <mxGeometry relative="1" as="geometry">
            <mxPoint x="274.5" y="285" as="sourcePoint" />
            <mxPoint x="275.1600000000001" y="324" as="targetPoint" />
            <Array as="points">
              <mxPoint x="275" y="305" />
              <mxPoint x="275" y="305" />
            </Array>
          </mxGeometry>
        </mxCell>
        <mxCell id="QgiZUQYlci3NkOVuFy5h-6" value="HTTP 요청 메시지 유효성 검사" style="rounded=0;whiteSpace=wrap;html=1;strokeWidth=3;fontSize=16;" parent="1" vertex="1">
          <mxGeometry x="80" y="235" width="690" height="50" as="geometry" />
        </mxCell>
        <mxCell id="QgiZUQYlci3NkOVuFy5h-7" style="edgeStyle=orthogonalEdgeStyle;rounded=0;orthogonalLoop=1;jettySize=auto;html=1;exitX=0.5;exitY=0;exitDx=0;exitDy=0;entryX=0.5;entryY=0;entryDx=0;entryDy=0;" parent="1" source="QgiZUQYlci3NkOVuFy5h-10" target="QgiZUQYlci3NkOVuFy5h-10" edge="1">
          <mxGeometry relative="1" as="geometry" />
        </mxCell>
        <mxCell id="QgiZUQYlci3NkOVuFy5h-8" style="edgeStyle=orthogonalEdgeStyle;rounded=0;orthogonalLoop=1;jettySize=auto;html=1;exitX=0.5;exitY=1;exitDx=0;exitDy=0;entryX=0.5;entryY=0;entryDx=0;entryDy=0;strokeWidth=3;endArrow=blockThin;endFill=1;" parent="1" source="QgiZUQYlci3NkOVuFy5h-10" target="QgiZUQYlci3NkOVuFy5h-15" edge="1">
          <mxGeometry relative="1" as="geometry" />
        </mxCell>
        <mxCell id="QgiZUQYlci3NkOVuFy5h-9" style="edgeStyle=orthogonalEdgeStyle;rounded=0;orthogonalLoop=1;jettySize=auto;html=1;exitX=1;exitY=0.5;exitDx=0;exitDy=0;entryX=0;entryY=0.5;entryDx=0;entryDy=0;strokeWidth=3;endArrow=blockThin;endFill=1;" parent="1" source="QgiZUQYlci3NkOVuFy5h-10" target="QgiZUQYlci3NkOVuFy5h-12" edge="1">
          <mxGeometry relative="1" as="geometry" />
        </mxCell>
        <mxCell id="QgiZUQYlci3NkOVuFy5h-10" value="HTTP 메소드 권한 검사" style="rounded=0;whiteSpace=wrap;html=1;strokeWidth=3;fontSize=16;" parent="1" vertex="1">
          <mxGeometry x="80" y="325" width="390" height="50" as="geometry" />
        </mxCell>
        <mxCell id="QgiZUQYlci3NkOVuFy5h-11" style="edgeStyle=orthogonalEdgeStyle;rounded=0;orthogonalLoop=1;jettySize=auto;html=1;exitX=1;exitY=0.5;exitDx=0;exitDy=0;entryX=1;entryY=0.5;entryDx=0;entryDy=0;strokeWidth=3;endArrow=blockThin;endFill=1;" parent="1" source="QgiZUQYlci3NkOVuFy5h-12" target="QgiZUQYlci3NkOVuFy5h-48" edge="1">
          <mxGeometry relative="1" as="geometry">
            <Array as="points">
              <mxPoint x="810" y="350" />
              <mxPoint x="810" y="1020" />
            </Array>
            <mxPoint x="770" y="1290" as="targetPoint" />
          </mxGeometry>
        </mxCell>
        <mxCell id="QgiZUQYlci3NkOVuFy5h-12" value="메소드 권한이 없으면&lt;br&gt;405 Error" style="rounded=0;whiteSpace=wrap;html=1;strokeWidth=3;fontSize=16;" parent="1" vertex="1">
          <mxGeometry x="550" y="325" width="220" height="50" as="geometry" />
        </mxCell>
        <mxCell id="QgiZUQYlci3NkOVuFy5h-13" style="edgeStyle=orthogonalEdgeStyle;rounded=0;orthogonalLoop=1;jettySize=auto;html=1;exitX=1;exitY=0.5;exitDx=0;exitDy=0;entryX=0;entryY=0.5;entryDx=0;entryDy=0;strokeWidth=3;endArrow=blockThin;endFill=1;" parent="1" source="QgiZUQYlci3NkOVuFy5h-15" target="QgiZUQYlci3NkOVuFy5h-17" edge="1">
          <mxGeometry relative="1" as="geometry" />
        </mxCell>
        <mxCell id="QgiZUQYlci3NkOVuFy5h-14" style="edgeStyle=orthogonalEdgeStyle;rounded=0;orthogonalLoop=1;jettySize=auto;html=1;exitX=0.5;exitY=1;exitDx=0;exitDy=0;entryX=0.5;entryY=0;entryDx=0;entryDy=0;strokeWidth=3;endArrow=blockThin;endFill=1;" parent="1" source="QgiZUQYlci3NkOVuFy5h-15" target="QgiZUQYlci3NkOVuFy5h-20" edge="1">
          <mxGeometry relative="1" as="geometry" />
        </mxCell>
        <mxCell id="QgiZUQYlci3NkOVuFy5h-15" value="HTTP 버전 유효성 검사" style="rounded=0;whiteSpace=wrap;html=1;strokeWidth=3;fontSize=16;" parent="1" vertex="1">
          <mxGeometry x="80" y="415" width="390" height="50" as="geometry" />
        </mxCell>
        <mxCell id="QgiZUQYlci3NkOVuFy5h-16" style="edgeStyle=orthogonalEdgeStyle;rounded=0;orthogonalLoop=1;jettySize=auto;html=1;exitX=1;exitY=0.5;exitDx=0;exitDy=0;entryX=1;entryY=0.5;entryDx=0;entryDy=0;strokeWidth=3;endArrow=blockThin;endFill=1;" parent="1" source="QgiZUQYlci3NkOVuFy5h-17" target="QgiZUQYlci3NkOVuFy5h-48" edge="1">
          <mxGeometry relative="1" as="geometry">
            <Array as="points">
              <mxPoint x="810" y="440" />
              <mxPoint x="810" y="1020" />
            </Array>
            <mxPoint x="770" y="1290" as="targetPoint" />
          </mxGeometry>
        </mxCell>
        <mxCell id="QgiZUQYlci3NkOVuFy5h-17" value="메소드 버전 유효성 검사 실패&lt;br&gt;400 Error" style="rounded=0;whiteSpace=wrap;html=1;strokeWidth=3;fontSize=16;" parent="1" vertex="1">
          <mxGeometry x="550" y="415" width="220" height="50" as="geometry" />
        </mxCell>
        <mxCell id="QgiZUQYlci3NkOVuFy5h-18" style="edgeStyle=orthogonalEdgeStyle;rounded=0;orthogonalLoop=1;jettySize=auto;html=1;exitX=1;exitY=0.5;exitDx=0;exitDy=0;entryX=0;entryY=0.5;entryDx=0;entryDy=0;strokeWidth=3;endArrow=blockThin;endFill=1;" parent="1" source="QgiZUQYlci3NkOVuFy5h-20" target="QgiZUQYlci3NkOVuFy5h-22" edge="1">
          <mxGeometry relative="1" as="geometry" />
        </mxCell>
        <mxCell id="QgiZUQYlci3NkOVuFy5h-19" style="edgeStyle=orthogonalEdgeStyle;rounded=0;orthogonalLoop=1;jettySize=auto;html=1;exitX=0.5;exitY=1;exitDx=0;exitDy=0;entryX=0.5;entryY=0;entryDx=0;entryDy=0;strokeWidth=3;endArrow=blockThin;endFill=1;" parent="1" source="QgiZUQYlci3NkOVuFy5h-20" target="QgiZUQYlci3NkOVuFy5h-26" edge="1">
          <mxGeometry relative="1" as="geometry" />
        </mxCell>
        <mxCell id="QgiZUQYlci3NkOVuFy5h-20" value="HTTP 메세지 바디 크기 검사" style="rounded=0;whiteSpace=wrap;html=1;strokeWidth=3;fontSize=16;" parent="1" vertex="1">
          <mxGeometry x="80" y="505" width="390" height="50" as="geometry" />
        </mxCell>
        <mxCell id="QgiZUQYlci3NkOVuFy5h-21" style="edgeStyle=orthogonalEdgeStyle;rounded=0;orthogonalLoop=1;jettySize=auto;html=1;exitX=1;exitY=0.5;exitDx=0;exitDy=0;entryX=1;entryY=0.5;entryDx=0;entryDy=0;strokeWidth=3;endArrow=blockThin;endFill=1;" parent="1" source="QgiZUQYlci3NkOVuFy5h-22" target="QgiZUQYlci3NkOVuFy5h-48" edge="1">
          <mxGeometry relative="1" as="geometry">
            <Array as="points">
              <mxPoint x="810" y="530" />
              <mxPoint x="810" y="1020" />
            </Array>
            <mxPoint x="770" y="1290" as="targetPoint" />
          </mxGeometry>
        </mxCell>
        <mxCell id="QgiZUQYlci3NkOVuFy5h-22" value="메시지 바디가 너무 크면&lt;br&gt;413 Error" style="rounded=0;whiteSpace=wrap;html=1;strokeWidth=3;fontSize=16;" parent="1" vertex="1">
          <mxGeometry x="550" y="505" width="220" height="50" as="geometry" />
        </mxCell>
        <mxCell id="QgiZUQYlci3NkOVuFy5h-23" style="edgeStyle=orthogonalEdgeStyle;rounded=0;orthogonalLoop=1;jettySize=auto;html=1;exitX=1;exitY=0.5;exitDx=0;exitDy=0;entryX=0;entryY=0.5;entryDx=0;entryDy=0;strokeWidth=3;endArrow=blockThin;endFill=1;" parent="1" source="QgiZUQYlci3NkOVuFy5h-26" target="QgiZUQYlci3NkOVuFy5h-28" edge="1">
          <mxGeometry relative="1" as="geometry" />
        </mxCell>
        <mxCell id="QgiZUQYlci3NkOVuFy5h-24" style="edgeStyle=orthogonalEdgeStyle;rounded=0;orthogonalLoop=1;jettySize=auto;html=1;exitX=1;exitY=0.5;exitDx=0;exitDy=0;entryX=0;entryY=0.5;entryDx=0;entryDy=0;strokeWidth=3;endArrow=blockThin;endFill=1;" parent="1" source="QgiZUQYlci3NkOVuFy5h-26" target="QgiZUQYlci3NkOVuFy5h-30" edge="1">
          <mxGeometry relative="1" as="geometry" />
        </mxCell>
        <mxCell id="OXziAlZzSLuU2gE5iD0m-1" style="edgeStyle=orthogonalEdgeStyle;rounded=0;orthogonalLoop=1;jettySize=auto;html=1;exitX=0.5;exitY=1;exitDx=0;exitDy=0;entryX=0.283;entryY=-0.01;entryDx=0;entryDy=0;entryPerimeter=0;strokeWidth=3;endArrow=blockThin;endFill=1;" parent="1" source="QgiZUQYlci3NkOVuFy5h-26" target="QgiZUQYlci3NkOVuFy5h-49" edge="1">
          <mxGeometry relative="1" as="geometry" />
        </mxCell>
        <mxCell id="QgiZUQYlci3NkOVuFy5h-26" value="requestTarget에 대한 파일 경로 찾기" style="rounded=0;whiteSpace=wrap;html=1;strokeWidth=3;fontSize=16;" parent="1" vertex="1">
          <mxGeometry x="80" y="595" width="390" height="50" as="geometry" />
        </mxCell>
        <mxCell id="QgiZUQYlci3NkOVuFy5h-27" style="edgeStyle=orthogonalEdgeStyle;rounded=0;orthogonalLoop=1;jettySize=auto;html=1;exitX=1;exitY=0.5;exitDx=0;exitDy=0;strokeWidth=3;endArrow=blockThin;endFill=1;entryX=1;entryY=0.5;entryDx=0;entryDy=0;" parent="1" source="QgiZUQYlci3NkOVuFy5h-28" target="QgiZUQYlci3NkOVuFy5h-48" edge="1">
          <mxGeometry relative="1" as="geometry">
            <Array as="points">
              <mxPoint x="810" y="620" />
              <mxPoint x="810" y="1020" />
            </Array>
            <mxPoint x="730" y="1185" as="targetPoint" />
          </mxGeometry>
        </mxCell>
        <mxCell id="QgiZUQYlci3NkOVuFy5h-28" value="파일 권한 없으면&lt;br&gt;500 Error" style="rounded=0;whiteSpace=wrap;html=1;strokeWidth=3;fontSize=16;" parent="1" vertex="1">
          <mxGeometry x="550" y="595" width="220" height="50" as="geometry" />
        </mxCell>
        <mxCell id="QgiZUQYlci3NkOVuFy5h-29" style="edgeStyle=orthogonalEdgeStyle;rounded=0;orthogonalLoop=1;jettySize=auto;html=1;exitX=1;exitY=0.5;exitDx=0;exitDy=0;entryX=1;entryY=0.5;entryDx=0;entryDy=0;strokeWidth=3;endArrow=blockThin;endFill=1;" parent="1" source="QgiZUQYlci3NkOVuFy5h-30" target="QgiZUQYlci3NkOVuFy5h-48" edge="1">
          <mxGeometry relative="1" as="geometry">
            <Array as="points">
              <mxPoint x="810" y="710" />
              <mxPoint x="810" y="1020" />
            </Array>
            <mxPoint x="770" y="1290" as="targetPoint" />
          </mxGeometry>
        </mxCell>
        <mxCell id="QgiZUQYlci3NkOVuFy5h-30" value="파일 경로 없으면&lt;br&gt;404 Error" style="rounded=0;whiteSpace=wrap;html=1;strokeWidth=3;fontSize=16;" parent="1" vertex="1">
          <mxGeometry x="550" y="685" width="220" height="50" as="geometry" />
        </mxCell>
        <mxCell id="QgiZUQYlci3NkOVuFy5h-31" style="edgeStyle=orthogonalEdgeStyle;rounded=0;orthogonalLoop=1;jettySize=auto;html=1;exitX=0.5;exitY=1;exitDx=0;exitDy=0;entryX=0.5;entryY=0;entryDx=0;entryDy=0;strokeWidth=3;endArrow=blockThin;endFill=1;" parent="1" source="QgiZUQYlci3NkOVuFy5h-49" target="QgiZUQYlci3NkOVuFy5h-36" edge="1">
          <mxGeometry relative="1" as="geometry">
            <mxPoint x="425" y="915" as="sourcePoint" />
          </mxGeometry>
        </mxCell>
        <mxCell id="QgiZUQYlci3NkOVuFy5h-32" style="edgeStyle=orthogonalEdgeStyle;rounded=0;orthogonalLoop=1;jettySize=auto;html=1;exitX=0.5;exitY=1;exitDx=0;exitDy=0;entryX=0.5;entryY=0;entryDx=0;entryDy=0;strokeWidth=3;endArrow=blockThin;endFill=1;" parent="1" source="QgiZUQYlci3NkOVuFy5h-49" edge="1">
          <mxGeometry relative="1" as="geometry">
            <mxPoint x="425" y="915" as="sourcePoint" />
            <mxPoint x="610" y="995" as="targetPoint" />
            <Array as="points">
              <mxPoint x="425" y="865" />
              <mxPoint x="611" y="865" />
            </Array>
          </mxGeometry>
        </mxCell>
        <mxCell id="QgiZUQYlci3NkOVuFy5h-51" style="edgeStyle=orthogonalEdgeStyle;rounded=0;orthogonalLoop=1;jettySize=auto;html=1;exitX=0.5;exitY=1;exitDx=0;exitDy=0;entryX=0.232;entryY=-0.06;entryDx=0;entryDy=0;entryPerimeter=0;strokeWidth=3;endArrow=blockThin;endFill=1;" parent="1" source="QgiZUQYlci3NkOVuFy5h-36" target="QgiZUQYlci3NkOVuFy5h-48" edge="1">
          <mxGeometry relative="1" as="geometry" />
        </mxCell>
        <mxCell id="QgiZUQYlci3NkOVuFy5h-36" value="메세지 바디 있으면&lt;br&gt;200 OK" style="rounded=0;whiteSpace=wrap;html=1;strokeWidth=3;fontSize=16;" parent="1" vertex="1">
          <mxGeometry x="80" y="905" width="320" height="50" as="geometry" />
        </mxCell>
        <mxCell id="QgiZUQYlci3NkOVuFy5h-48" value="HTTP 응답 메세지 생성" style="rounded=0;whiteSpace=wrap;html=1;strokeWidth=3;fontSize=16;" parent="1" vertex="1">
          <mxGeometry x="80" y="995" width="690" height="50" as="geometry" />
        </mxCell>
        <mxCell id="QgiZUQYlci3NkOVuFy5h-49" value="파일 삭제" style="rounded=0;whiteSpace=wrap;html=1;strokeWidth=3;fontSize=16;" parent="1" vertex="1">
          <mxGeometry x="80" y="775" width="690" height="50" as="geometry" />
        </mxCell>
        <mxCell id="QgiZUQYlci3NkOVuFy5h-50" value="메세지 바디 없으면&lt;br&gt;204&amp;nbsp;No Content" style="rounded=0;whiteSpace=wrap;html=1;strokeWidth=3;fontSize=16;" parent="1" vertex="1">
          <mxGeometry x="450" y="905" width="320" height="50" as="geometry" />
        </mxCell>
      </root>
    </mxGraphModel>
  </diagram>
  <diagram id="6-xEaCDd-d9Mb65lHpx0" name="PUT_handler">
    <mxGraphModel dx="1478" dy="899" grid="1" gridSize="10" guides="1" tooltips="1" connect="1" arrows="1" fold="1" page="1" pageScale="1" pageWidth="850" pageHeight="1100" math="0" shadow="0">
      <root>
        <mxCell id="0" />
        <mxCell id="1" parent="0" />
        <mxCell id="rRik9qEiuZyhDXDhtfOF-1" style="edgeStyle=orthogonalEdgeStyle;rounded=0;orthogonalLoop=1;jettySize=auto;html=1;exitX=0.5;exitY=1;exitDx=0;exitDy=0;entryX=0.5;entryY=0;entryDx=0;entryDy=0;strokeWidth=3;endArrow=blockThin;endFill=1;" parent="1" source="rRik9qEiuZyhDXDhtfOF-2" target="rRik9qEiuZyhDXDhtfOF-4" edge="1">
          <mxGeometry relative="1" as="geometry" />
        </mxCell>
        <mxCell id="rRik9qEiuZyhDXDhtfOF-2" value="&lt;span style=&quot;font-size: 16px;&quot;&gt;PutRequestHandler 객체 생성&lt;/span&gt;" style="rounded=0;whiteSpace=wrap;html=1;strokeWidth=3;" parent="1" vertex="1">
          <mxGeometry x="80" y="40" width="690" height="50" as="geometry" />
        </mxCell>
        <mxCell id="rRik9qEiuZyhDXDhtfOF-3" style="edgeStyle=orthogonalEdgeStyle;rounded=0;orthogonalLoop=1;jettySize=auto;html=1;exitX=0.5;exitY=1;exitDx=0;exitDy=0;entryX=0.5;entryY=0;entryDx=0;entryDy=0;strokeWidth=3;endArrow=blockThin;endFill=1;" parent="1" source="rRik9qEiuZyhDXDhtfOF-4" target="rRik9qEiuZyhDXDhtfOF-6" edge="1">
          <mxGeometry relative="1" as="geometry" />
        </mxCell>
        <mxCell id="rRik9qEiuZyhDXDhtfOF-4" value="requestTarget에 대한 Location Block 리다이렉션" style="rounded=0;whiteSpace=wrap;html=1;strokeWidth=3;fontSize=16;" parent="1" vertex="1">
          <mxGeometry x="80" y="130" width="690" height="50" as="geometry" />
        </mxCell>
        <mxCell id="rRik9qEiuZyhDXDhtfOF-5" style="edgeStyle=orthogonalEdgeStyle;rounded=0;orthogonalLoop=1;jettySize=auto;html=1;exitX=0.25;exitY=1;exitDx=0;exitDy=0;entryX=0.444;entryY=-0.02;entryDx=0;entryDy=0;entryPerimeter=0;strokeWidth=3;endArrow=blockThin;endFill=1;" parent="1" edge="1">
          <mxGeometry relative="1" as="geometry">
            <mxPoint x="274.5" y="270" as="sourcePoint" />
            <mxPoint x="275.1600000000001" y="309" as="targetPoint" />
            <Array as="points">
              <mxPoint x="275" y="290" />
              <mxPoint x="275" y="290" />
            </Array>
          </mxGeometry>
        </mxCell>
        <mxCell id="rRik9qEiuZyhDXDhtfOF-6" value="HTTP 요청 메시지 유효성 검사" style="rounded=0;whiteSpace=wrap;html=1;strokeWidth=3;fontSize=16;" parent="1" vertex="1">
          <mxGeometry x="80" y="220" width="690" height="50" as="geometry" />
        </mxCell>
        <mxCell id="rRik9qEiuZyhDXDhtfOF-7" style="edgeStyle=orthogonalEdgeStyle;rounded=0;orthogonalLoop=1;jettySize=auto;html=1;exitX=0.5;exitY=0;exitDx=0;exitDy=0;entryX=0.5;entryY=0;entryDx=0;entryDy=0;" parent="1" source="rRik9qEiuZyhDXDhtfOF-10" target="rRik9qEiuZyhDXDhtfOF-10" edge="1">
          <mxGeometry relative="1" as="geometry" />
        </mxCell>
        <mxCell id="rRik9qEiuZyhDXDhtfOF-8" style="edgeStyle=orthogonalEdgeStyle;rounded=0;orthogonalLoop=1;jettySize=auto;html=1;exitX=0.5;exitY=1;exitDx=0;exitDy=0;entryX=0.5;entryY=0;entryDx=0;entryDy=0;strokeWidth=3;endArrow=blockThin;endFill=1;" parent="1" source="rRik9qEiuZyhDXDhtfOF-10" target="rRik9qEiuZyhDXDhtfOF-15" edge="1">
          <mxGeometry relative="1" as="geometry" />
        </mxCell>
        <mxCell id="rRik9qEiuZyhDXDhtfOF-9" style="edgeStyle=orthogonalEdgeStyle;rounded=0;orthogonalLoop=1;jettySize=auto;html=1;exitX=1;exitY=0.5;exitDx=0;exitDy=0;entryX=0;entryY=0.5;entryDx=0;entryDy=0;strokeWidth=3;endArrow=blockThin;endFill=1;" parent="1" source="rRik9qEiuZyhDXDhtfOF-10" target="rRik9qEiuZyhDXDhtfOF-12" edge="1">
          <mxGeometry relative="1" as="geometry" />
        </mxCell>
        <mxCell id="rRik9qEiuZyhDXDhtfOF-10" value="HTTP 메소드 권한 검사" style="rounded=0;whiteSpace=wrap;html=1;strokeWidth=3;fontSize=16;" parent="1" vertex="1">
          <mxGeometry x="80" y="310" width="390" height="50" as="geometry" />
        </mxCell>
        <mxCell id="rRik9qEiuZyhDXDhtfOF-11" style="edgeStyle=orthogonalEdgeStyle;rounded=0;orthogonalLoop=1;jettySize=auto;html=1;exitX=1;exitY=0.5;exitDx=0;exitDy=0;entryX=1;entryY=0.5;entryDx=0;entryDy=0;strokeWidth=3;endArrow=blockThin;endFill=1;" parent="1" source="rRik9qEiuZyhDXDhtfOF-12" target="rRik9qEiuZyhDXDhtfOF-42" edge="1">
          <mxGeometry relative="1" as="geometry">
            <Array as="points">
              <mxPoint x="810" y="335" />
              <mxPoint x="810" y="965" />
            </Array>
          </mxGeometry>
        </mxCell>
        <mxCell id="rRik9qEiuZyhDXDhtfOF-12" value="메소드 권한이 없으면&lt;br&gt;405 Error" style="rounded=0;whiteSpace=wrap;html=1;strokeWidth=3;fontSize=16;" parent="1" vertex="1">
          <mxGeometry x="550" y="310" width="220" height="50" as="geometry" />
        </mxCell>
        <mxCell id="rRik9qEiuZyhDXDhtfOF-13" style="edgeStyle=orthogonalEdgeStyle;rounded=0;orthogonalLoop=1;jettySize=auto;html=1;exitX=1;exitY=0.5;exitDx=0;exitDy=0;entryX=0;entryY=0.5;entryDx=0;entryDy=0;strokeWidth=3;endArrow=blockThin;endFill=1;" parent="1" source="rRik9qEiuZyhDXDhtfOF-15" target="rRik9qEiuZyhDXDhtfOF-17" edge="1">
          <mxGeometry relative="1" as="geometry" />
        </mxCell>
        <mxCell id="rRik9qEiuZyhDXDhtfOF-14" style="edgeStyle=orthogonalEdgeStyle;rounded=0;orthogonalLoop=1;jettySize=auto;html=1;exitX=0.5;exitY=1;exitDx=0;exitDy=0;entryX=0.5;entryY=0;entryDx=0;entryDy=0;strokeWidth=3;endArrow=blockThin;endFill=1;" parent="1" source="rRik9qEiuZyhDXDhtfOF-15" target="rRik9qEiuZyhDXDhtfOF-20" edge="1">
          <mxGeometry relative="1" as="geometry" />
        </mxCell>
        <mxCell id="rRik9qEiuZyhDXDhtfOF-15" value="HTTP 버전 유효성 검사" style="rounded=0;whiteSpace=wrap;html=1;strokeWidth=3;fontSize=16;" parent="1" vertex="1">
          <mxGeometry x="80" y="400" width="390" height="50" as="geometry" />
        </mxCell>
        <mxCell id="rRik9qEiuZyhDXDhtfOF-16" style="edgeStyle=orthogonalEdgeStyle;rounded=0;orthogonalLoop=1;jettySize=auto;html=1;exitX=1;exitY=0.5;exitDx=0;exitDy=0;entryX=1;entryY=0.5;entryDx=0;entryDy=0;strokeWidth=3;endArrow=blockThin;endFill=1;" parent="1" source="rRik9qEiuZyhDXDhtfOF-17" target="rRik9qEiuZyhDXDhtfOF-42" edge="1">
          <mxGeometry relative="1" as="geometry">
            <Array as="points">
              <mxPoint x="810" y="425" />
              <mxPoint x="810" y="965" />
            </Array>
          </mxGeometry>
        </mxCell>
        <mxCell id="rRik9qEiuZyhDXDhtfOF-17" value="메소드 버전 유효성 검사 실패&lt;br&gt;400 Error" style="rounded=0;whiteSpace=wrap;html=1;strokeWidth=3;fontSize=16;" parent="1" vertex="1">
          <mxGeometry x="550" y="400" width="220" height="50" as="geometry" />
        </mxCell>
        <mxCell id="rRik9qEiuZyhDXDhtfOF-18" style="edgeStyle=orthogonalEdgeStyle;rounded=0;orthogonalLoop=1;jettySize=auto;html=1;exitX=1;exitY=0.5;exitDx=0;exitDy=0;entryX=0;entryY=0.5;entryDx=0;entryDy=0;strokeWidth=3;endArrow=blockThin;endFill=1;" parent="1" source="rRik9qEiuZyhDXDhtfOF-20" target="rRik9qEiuZyhDXDhtfOF-22" edge="1">
          <mxGeometry relative="1" as="geometry" />
        </mxCell>
        <mxCell id="rRik9qEiuZyhDXDhtfOF-19" style="edgeStyle=orthogonalEdgeStyle;rounded=0;orthogonalLoop=1;jettySize=auto;html=1;exitX=0.5;exitY=1;exitDx=0;exitDy=0;entryX=0.5;entryY=0;entryDx=0;entryDy=0;strokeWidth=3;endArrow=blockThin;endFill=1;" parent="1" source="rRik9qEiuZyhDXDhtfOF-20" target="rRik9qEiuZyhDXDhtfOF-26" edge="1">
          <mxGeometry relative="1" as="geometry" />
        </mxCell>
        <mxCell id="rRik9qEiuZyhDXDhtfOF-20" value="HTTP 메세지 바디 크기 검사" style="rounded=0;whiteSpace=wrap;html=1;strokeWidth=3;fontSize=16;" parent="1" vertex="1">
          <mxGeometry x="80" y="490" width="390" height="50" as="geometry" />
        </mxCell>
        <mxCell id="rRik9qEiuZyhDXDhtfOF-21" style="edgeStyle=orthogonalEdgeStyle;rounded=0;orthogonalLoop=1;jettySize=auto;html=1;exitX=1;exitY=0.5;exitDx=0;exitDy=0;entryX=1;entryY=0.5;entryDx=0;entryDy=0;strokeWidth=3;endArrow=blockThin;endFill=1;" parent="1" source="rRik9qEiuZyhDXDhtfOF-22" target="rRik9qEiuZyhDXDhtfOF-42" edge="1">
          <mxGeometry relative="1" as="geometry">
            <Array as="points">
              <mxPoint x="810" y="515" />
              <mxPoint x="810" y="965" />
            </Array>
          </mxGeometry>
        </mxCell>
        <mxCell id="rRik9qEiuZyhDXDhtfOF-22" value="메시지 바디가 너무 크면&lt;br&gt;413 Error" style="rounded=0;whiteSpace=wrap;html=1;strokeWidth=3;fontSize=16;" parent="1" vertex="1">
          <mxGeometry x="550" y="490" width="220" height="50" as="geometry" />
        </mxCell>
        <mxCell id="rRik9qEiuZyhDXDhtfOF-23" style="edgeStyle=orthogonalEdgeStyle;rounded=0;orthogonalLoop=1;jettySize=auto;html=1;exitX=1;exitY=0.5;exitDx=0;exitDy=0;entryX=0;entryY=0.5;entryDx=0;entryDy=0;strokeWidth=3;endArrow=blockThin;endFill=1;" parent="1" source="rRik9qEiuZyhDXDhtfOF-26" target="rRik9qEiuZyhDXDhtfOF-28" edge="1">
          <mxGeometry relative="1" as="geometry" />
        </mxCell>
        <mxCell id="rRik9qEiuZyhDXDhtfOF-24" style="edgeStyle=orthogonalEdgeStyle;rounded=0;orthogonalLoop=1;jettySize=auto;html=1;exitX=1;exitY=0.5;exitDx=0;exitDy=0;entryX=0;entryY=0.5;entryDx=0;entryDy=0;strokeWidth=3;endArrow=blockThin;endFill=1;" parent="1" source="rRik9qEiuZyhDXDhtfOF-26" target="rRik9qEiuZyhDXDhtfOF-30" edge="1">
          <mxGeometry relative="1" as="geometry" />
        </mxCell>
        <mxCell id="rRik9qEiuZyhDXDhtfOF-25" style="edgeStyle=orthogonalEdgeStyle;rounded=0;orthogonalLoop=1;jettySize=auto;html=1;exitX=0.5;exitY=1;exitDx=0;exitDy=0;entryX=0.609;entryY=-0.03;entryDx=0;entryDy=0;strokeWidth=3;endArrow=blockThin;endFill=1;entryPerimeter=0;" parent="1" source="rRik9qEiuZyhDXDhtfOF-26" target="rRik9qEiuZyhDXDhtfOF-33" edge="1">
          <mxGeometry relative="1" as="geometry">
            <Array as="points" />
          </mxGeometry>
        </mxCell>
        <mxCell id="rRik9qEiuZyhDXDhtfOF-26" value="requestTarget에 대한 파일 경로 찾기" style="rounded=0;whiteSpace=wrap;html=1;strokeWidth=3;fontSize=16;" parent="1" vertex="1">
          <mxGeometry x="80" y="580" width="390" height="50" as="geometry" />
        </mxCell>
        <mxCell id="rRik9qEiuZyhDXDhtfOF-27" style="edgeStyle=orthogonalEdgeStyle;rounded=0;orthogonalLoop=1;jettySize=auto;html=1;exitX=1;exitY=0.5;exitDx=0;exitDy=0;entryX=1;entryY=0.5;entryDx=0;entryDy=0;strokeWidth=3;endArrow=blockThin;endFill=1;" parent="1" source="rRik9qEiuZyhDXDhtfOF-28" target="rRik9qEiuZyhDXDhtfOF-42" edge="1">
          <mxGeometry relative="1" as="geometry">
            <Array as="points">
              <mxPoint x="810" y="605" />
              <mxPoint x="810" y="965" />
            </Array>
          </mxGeometry>
        </mxCell>
        <mxCell id="rRik9qEiuZyhDXDhtfOF-28" value="파일 권한 없으면&lt;br&gt;500 Error" style="rounded=0;whiteSpace=wrap;html=1;strokeWidth=3;fontSize=16;" parent="1" vertex="1">
          <mxGeometry x="550" y="580" width="220" height="50" as="geometry" />
        </mxCell>
        <mxCell id="rRik9qEiuZyhDXDhtfOF-50" style="edgeStyle=orthogonalEdgeStyle;rounded=0;orthogonalLoop=1;jettySize=auto;html=1;exitX=0.5;exitY=1;exitDx=0;exitDy=0;entryX=0.664;entryY=-0.03;entryDx=0;entryDy=0;entryPerimeter=0;strokeWidth=3;endArrow=blockThin;endFill=1;" parent="1" source="rRik9qEiuZyhDXDhtfOF-30" target="rRik9qEiuZyhDXDhtfOF-49" edge="1">
          <mxGeometry relative="1" as="geometry" />
        </mxCell>
        <mxCell id="rRik9qEiuZyhDXDhtfOF-30" value="파일 경로 없으면&lt;br&gt;404 Error" style="rounded=0;whiteSpace=wrap;html=1;strokeWidth=3;fontSize=16;" parent="1" vertex="1">
          <mxGeometry x="550" y="670" width="220" height="50" as="geometry" />
        </mxCell>
        <mxCell id="rRik9qEiuZyhDXDhtfOF-31" style="edgeStyle=orthogonalEdgeStyle;rounded=0;orthogonalLoop=1;jettySize=auto;html=1;exitX=0.5;exitY=1;exitDx=0;exitDy=0;entryX=0.5;entryY=0;entryDx=0;entryDy=0;strokeWidth=3;endArrow=blockThin;endFill=1;" parent="1" source="rRik9qEiuZyhDXDhtfOF-33" target="rRik9qEiuZyhDXDhtfOF-36" edge="1">
          <mxGeometry relative="1" as="geometry" />
        </mxCell>
        <mxCell id="6k3xZB90W6Ar13SjO_aE-1" style="edgeStyle=orthogonalEdgeStyle;rounded=0;orthogonalLoop=1;jettySize=auto;html=1;exitX=0.5;exitY=1;exitDx=0;exitDy=0;strokeWidth=3;endArrow=blockThin;endFill=1;" parent="1" source="rRik9qEiuZyhDXDhtfOF-33" target="4avYOdSFzYlFLkPtGpdD-1" edge="1">
          <mxGeometry relative="1" as="geometry" />
        </mxCell>
        <mxCell id="rRik9qEiuZyhDXDhtfOF-33" value="파일 Open 후 리소스 수정" style="rounded=0;whiteSpace=wrap;html=1;strokeWidth=3;fontSize=16;" parent="1" vertex="1">
          <mxGeometry x="80" y="760" width="320" height="50" as="geometry" />
        </mxCell>
        <mxCell id="BTeoX--CgbC_CKxqvjMP-1" style="edgeStyle=orthogonalEdgeStyle;rounded=0;orthogonalLoop=1;jettySize=auto;html=1;exitX=0.5;exitY=1;exitDx=0;exitDy=0;entryX=0.103;entryY=-0.01;entryDx=0;entryDy=0;entryPerimeter=0;strokeWidth=3;endArrow=blockThin;endFill=1;" parent="1" source="rRik9qEiuZyhDXDhtfOF-36" target="rRik9qEiuZyhDXDhtfOF-42" edge="1">
          <mxGeometry relative="1" as="geometry" />
        </mxCell>
        <mxCell id="rRik9qEiuZyhDXDhtfOF-36" value="메세지 바디 있으면&lt;br&gt;200 OK" style="rounded=0;whiteSpace=wrap;html=1;strokeWidth=3;fontSize=16;" parent="1" vertex="1">
          <mxGeometry x="80" y="850" width="140" height="50" as="geometry" />
        </mxCell>
        <mxCell id="rRik9qEiuZyhDXDhtfOF-42" value="HTTP 응답 메세지 생성" style="rounded=0;whiteSpace=wrap;html=1;strokeWidth=3;fontSize=16;" parent="1" vertex="1">
          <mxGeometry x="80" y="940" width="680" height="50" as="geometry" />
        </mxCell>
        <mxCell id="rRik9qEiuZyhDXDhtfOF-47" style="edgeStyle=orthogonalEdgeStyle;rounded=0;orthogonalLoop=1;jettySize=auto;html=1;exitX=0.5;exitY=1;exitDx=0;exitDy=0;" parent="1" edge="1">
          <mxGeometry relative="1" as="geometry">
            <mxPoint x="610" y="1120" as="sourcePoint" />
            <mxPoint x="610" y="1120" as="targetPoint" />
          </mxGeometry>
        </mxCell>
        <mxCell id="BTeoX--CgbC_CKxqvjMP-4" style="edgeStyle=orthogonalEdgeStyle;rounded=0;orthogonalLoop=1;jettySize=auto;html=1;exitX=0.5;exitY=1;exitDx=0;exitDy=0;entryX=0.5;entryY=0;entryDx=0;entryDy=0;strokeWidth=3;endArrow=blockThin;endFill=1;" parent="1" source="rRik9qEiuZyhDXDhtfOF-49" target="rRik9qEiuZyhDXDhtfOF-52" edge="1">
          <mxGeometry relative="1" as="geometry" />
        </mxCell>
        <mxCell id="rRik9qEiuZyhDXDhtfOF-49" value="파일 생성 후 리소스 입력" style="rounded=0;whiteSpace=wrap;html=1;strokeWidth=3;fontSize=16;" parent="1" vertex="1">
          <mxGeometry x="450" y="760" width="320" height="50" as="geometry" />
        </mxCell>
        <mxCell id="BTeoX--CgbC_CKxqvjMP-5" style="edgeStyle=orthogonalEdgeStyle;rounded=0;orthogonalLoop=1;jettySize=auto;html=1;exitX=0.5;exitY=1;exitDx=0;exitDy=0;entryX=0.779;entryY=-0.02;entryDx=0;entryDy=0;entryPerimeter=0;strokeWidth=3;endArrow=blockThin;endFill=1;" parent="1" source="rRik9qEiuZyhDXDhtfOF-52" target="rRik9qEiuZyhDXDhtfOF-42" edge="1">
          <mxGeometry relative="1" as="geometry" />
        </mxCell>
        <mxCell id="rRik9qEiuZyhDXDhtfOF-52" value="201 Created" style="rounded=0;whiteSpace=wrap;html=1;strokeWidth=3;fontSize=16;" parent="1" vertex="1">
          <mxGeometry x="450" y="850" width="320" height="50" as="geometry" />
        </mxCell>
        <mxCell id="BTeoX--CgbC_CKxqvjMP-2" style="edgeStyle=orthogonalEdgeStyle;rounded=0;orthogonalLoop=1;jettySize=auto;html=1;exitX=0.5;exitY=1;exitDx=0;exitDy=0;entryX=0.368;entryY=-0.01;entryDx=0;entryDy=0;entryPerimeter=0;strokeWidth=3;endArrow=blockThin;endFill=1;" parent="1" source="4avYOdSFzYlFLkPtGpdD-1" target="rRik9qEiuZyhDXDhtfOF-42" edge="1">
          <mxGeometry relative="1" as="geometry" />
        </mxCell>
        <mxCell id="4avYOdSFzYlFLkPtGpdD-1" value="메세지 바디 없으면&lt;br style=&quot;border-color: var(--border-color);&quot;&gt;204&amp;nbsp;No Content" style="rounded=0;whiteSpace=wrap;html=1;strokeWidth=3;fontSize=16;" parent="1" vertex="1">
          <mxGeometry x="260" y="850" width="140" height="50" as="geometry" />
        </mxCell>
      </root>
    </mxGraphModel>
  </diagram>
</mxfile>
